<svg xmlns="http://www.w3.org/2000/svg" width="256" height="256" viewBox="0 0 256 256" role="img" aria-label="01_home">
  <path d="M 56 191 L 58 194 L 58 197 L 59 195 L 57 193 L 57 141 Z M 47 109 L 40 115 L 39 119 L 37 121 L 37 126 L 37 122 L 39 120 L 39 118 Z M 122 49 L 119 51 L 116 53 L 108 61 L 103 64 L 101 66 L 97 71 L 92 75 L 88 77 L 85 80 L 81 85 L 77 87 L 66 98 L 62 101 L 59 102 L 57 104 L 50 112 L 45 115 L 44 116 L 44 117 L 42 119 L 41 123 L 41 127 L 42 131 L 47 137 L 51 136 L 52 137 L 59 136 L 61 138 L 60 157 L 60 162 L 62 192 L 61 197 L 64 198 L 70 205 L 75 207 L 82 206 L 86 206 L 104 207 L 106 205 L 108 205 L 111 202 L 111 165 L 113 163 L 113 161 L 116 158 L 118 157 L 137 157 L 140 158 L 142 160 L 145 161 L 146 165 L 146 203 L 147 205 L 149 205 L 151 207 L 177 206 L 181 207 L 183 205 L 186 205 L 190 201 L 191 201 L 194 197 L 198 196 L 197 199 L 194 202 L 197 199 L 199 196 L 199 193 L 196 195 L 196 137 L 204 137 L 208 136 L 214 131 L 214 127 L 216 124 L 214 121 L 215 116 L 216 115 L 214 117 L 213 115 L 212 116 L 210 115 L 206 112 L 201 108 L 200 107 L 200 106 L 198 103 L 200 101 L 198 100 L 196 98 L 199 101 L 196 103 L 192 100 L 185 93 L 186 89 L 183 91 L 180 89 L 179 85 L 181 85 L 177 86 L 175 85 L 173 83 L 174 79 L 172 78 L 172 77 L 170 76 L 168 78 L 165 75 L 164 75 L 158 68 L 160 66 L 158 65 L 155 67 L 152 65 L 148 62 L 147 61 L 141 53 L 137 51 L 134 49 Z" fill="#071A36" fill-rule="evenodd"/>
</svg>
