<svg xmlns="http://www.w3.org/2000/svg" width="256" height="256" viewBox="0 0 256 256" role="img" aria-label="02_dashboard">
  <path d="M 57 48 L 55 50 L 52 50 L 47 55 L 45 58 L 45 60 L 43 62 L 43 64 L 43 194 L 45 195 L 45 198 L 47 199 L 46 201 L 48 201 L 53 206 L 56 206 L 61 207 L 200 208 L 202 206 L 205 205 L 208 203 L 210 201 L 214 195 L 213 193 L 216 190 L 215 78 L 215 66 L 215 64 L 214 59 L 210 54 L 211 52 L 210 50 L 207 52 L 205 51 L 201 48 Z M 143 121 L 144 124 L 148 124 L 148 128 L 146 130 L 146 132 L 144 134 L 144 136 L 141 140 L 141 142 L 139 144 L 140 152 L 140 156 L 139 159 L 135 163 L 132 165 L 125 165 L 122 163 L 119 160 L 119 157 L 117 155 L 117 151 L 118 147 L 122 143 L 127 144 L 128 141 L 131 140 L 131 139 L 133 137 L 133 135 L 136 132 L 136 130 L 139 127 L 140 123 Z M 133 101 L 127 104 L 127 103 L 127 100 L 129 101 Z M 122 83 L 136 83 L 141 84 L 143 86 L 146 85 L 148 87 L 151 87 L 153 89 L 156 89 L 159 92 L 161 92 L 165 95 L 170 102 L 173 102 L 176 106 L 177 108 L 174 111 L 178 110 L 176 112 L 176 115 L 180 111 L 180 114 L 182 115 L 182 117 L 182 123 L 184 123 L 186 126 L 185 130 L 187 132 L 187 146 L 186 150 L 185 155 L 183 157 L 184 160 L 182 162 L 182 164 L 180 167 L 176 171 L 173 171 L 170 170 L 170 167 L 167 166 L 167 163 L 171 158 L 172 155 L 172 151 L 174 150 L 174 148 L 175 147 L 175 133 L 174 132 L 174 130 L 172 128 L 173 125 L 170 123 L 170 121 L 169 119 L 167 117 L 165 117 L 162 118 L 160 120 L 156 116 L 156 114 L 160 110 L 160 108 L 158 106 L 156 104 L 153 102 L 150 101 L 150 99 L 148 100 L 144 99 L 142 97 L 140 96 L 138 96 L 137 97 L 134 97 L 129 98 L 127 100 L 125 101 L 123 97 L 116 96 L 114 98 L 111 98 L 109 100 L 107 100 L 103 103 L 100 105 L 97 108 L 96 110 L 99 111 L 99 112 L 101 114 L 101 116 L 99 118 L 97 119 L 94 119 L 93 115 L 91 116 L 88 119 L 88 120 L 86 122 L 85 118 L 87 116 L 84 118 L 87 124 L 85 126 L 85 130 L 82 136 L 82 142 L 85 149 L 85 152 L 83 154 L 87 155 L 86 159 L 87 162 L 87 164 L 89 162 L 91 164 L 85 170 L 80 170 L 77 167 L 77 165 L 75 163 L 75 160 L 73 159 L 73 157 L 74 156 L 74 154 L 71 151 L 71 148 L 72 128 L 73 123 L 75 120 L 75 117 L 77 115 L 77 113 L 79 111 L 79 109 L 81 107 L 83 106 L 86 102 L 92 96 L 92 95 L 93 94 L 101 89 L 103 89 L 105 87 L 108 87 L 111 85 L 116 84 Z" fill="#071A36" fill-rule="evenodd"/>
</svg>
