<svg xmlns="http://www.w3.org/2000/svg" width="256" height="256" viewBox="0 0 256 256" role="img" aria-label="03_app_grid">
  <path d="M 147 140 L 144 141 L 142 143 L 140 146 L 139 151 L 140 199 L 140 205 L 138 207 L 137 204 L 135 204 L 136 206 L 138 208 L 142 206 L 143 209 L 146 210 L 151 213 L 196 213 L 202 212 L 207 210 L 209 209 L 211 204 L 214 201 L 214 149 L 212 147 L 211 144 L 209 142 L 205 139 L 150 138 Z M 51 140 L 48 141 L 45 144 L 45 140 L 40 145 L 42 145 L 44 143 L 46 145 L 46 147 L 44 149 L 44 200 L 45 205 L 48 209 L 52 212 L 82 213 L 104 213 L 113 210 L 115 208 L 117 205 L 119 202 L 119 199 L 118 182 L 119 147 L 116 145 L 116 144 L 113 141 L 110 139 L 55 138 Z M 137 48 L 136 50 L 135 52 L 135 106 L 135 54 L 137 52 L 138 50 Z M 147 45 L 143 48 L 142 49 L 142 50 L 140 52 L 139 55 L 139 106 L 140 109 L 141 112 L 145 117 L 147 118 L 151 119 L 200 119 L 204 118 L 206 117 L 211 112 L 214 108 L 213 54 L 211 52 L 211 50 L 214 48 L 215 50 L 216 49 L 212 45 L 209 47 L 207 47 L 205 45 Z M 114 43 L 116 45 L 114 47 L 112 47 L 110 45 L 52 45 L 49 47 L 45 51 L 44 55 L 44 105 L 44 107 L 46 109 L 46 112 L 48 114 L 50 117 L 52 118 L 56 119 L 105 119 L 109 118 L 111 117 L 113 116 L 114 115 L 114 114 L 117 110 L 118 110 L 119 106 L 119 87 L 119 80 L 119 59 L 119 54 L 117 53 L 120 49 L 120 51 L 121 49 L 115 47 L 117 45 Z" fill="#071A36" fill-rule="evenodd"/>
</svg>
