<svg xmlns="http://www.w3.org/2000/svg" width="256" height="256" viewBox="0 0 256 256" role="img" aria-label="04_menu">
  <path d="M 57 166 L 54 169 L 50 170 L 50 173 L 47 176 L 47 180 L 50 183 L 50 186 L 52 188 L 55 190 L 59 191 L 200 190 L 203 191 L 207 188 L 209 186 L 211 183 L 211 174 L 210 172 L 209 171 L 208 171 L 206 169 L 204 167 Z M 56 116 L 51 119 L 50 122 L 47 125 L 47 132 L 50 133 L 50 135 L 52 138 L 54 139 L 56 139 L 57 141 L 82 140 L 84 142 L 109 141 L 114 142 L 116 142 L 119 140 L 121 140 L 149 140 L 151 140 L 153 142 L 166 142 L 168 140 L 170 140 L 178 140 L 180 140 L 183 142 L 187 142 L 190 140 L 192 140 L 202 141 L 203 139 L 206 139 L 207 138 L 210 139 L 206 143 L 211 138 L 212 138 L 213 136 L 209 136 L 211 133 L 211 123 L 209 121 L 206 117 L 203 117 L 202 116 Z M 57 66 L 54 66 L 50 72 L 47 74 L 47 81 L 50 83 L 50 85 L 51 89 L 55 88 L 57 90 L 203 90 L 211 82 L 210 71 L 210 68 L 211 66 L 207 66 L 209 64 L 205 67 L 202 66 L 201 64 L 198 64 L 60 64 Z" fill="#071A36" fill-rule="evenodd"/>
</svg>
