<svg xmlns="http://www.w3.org/2000/svg" width="256" height="256" viewBox="0 0 256 256" role="img" aria-label="05_search">
  <path d="M 92 45 L 90 46 L 88 48 L 86 48 L 86 52 L 84 54 L 82 54 L 80 55 L 77 57 L 73 61 L 70 62 L 67 65 L 66 63 L 62 65 L 60 69 L 63 69 L 61 71 L 61 73 L 57 77 L 57 80 L 54 82 L 53 85 L 53 87 L 51 89 L 51 93 L 49 95 L 49 98 L 47 101 L 47 109 L 45 113 L 45 117 L 47 121 L 47 130 L 49 132 L 49 136 L 51 138 L 52 146 L 55 147 L 55 151 L 58 155 L 62 158 L 64 161 L 65 163 L 62 164 L 63 167 L 69 171 L 67 170 L 67 167 L 69 167 L 74 170 L 75 171 L 76 172 L 76 174 L 81 175 L 83 177 L 85 177 L 87 179 L 89 179 L 91 182 L 95 181 L 97 183 L 101 183 L 105 185 L 107 185 L 109 184 L 119 184 L 121 184 L 122 185 L 125 185 L 129 184 L 134 183 L 136 181 L 140 181 L 141 179 L 144 179 L 146 177 L 148 177 L 152 174 L 156 175 L 154 178 L 156 174 L 159 173 L 161 174 L 164 177 L 163 180 L 165 182 L 165 184 L 183 202 L 190 208 L 193 210 L 198 211 L 202 210 L 204 208 L 206 208 L 210 204 L 211 202 L 212 200 L 212 194 L 209 191 L 208 188 L 205 186 L 205 183 L 207 183 L 210 185 L 208 183 L 204 179 L 201 181 L 199 179 L 198 179 L 195 176 L 197 173 L 200 176 L 199 174 L 196 172 L 195 170 L 193 169 L 192 167 L 190 165 L 188 164 L 185 162 L 193 169 L 194 171 L 192 173 L 187 167 L 186 166 L 184 165 L 178 164 L 175 161 L 174 160 L 173 153 L 177 149 L 177 147 L 181 142 L 181 138 L 183 137 L 182 133 L 184 131 L 184 124 L 186 121 L 186 110 L 184 106 L 184 99 L 182 96 L 182 92 L 180 90 L 181 86 L 178 86 L 178 84 L 176 82 L 175 77 L 173 77 L 173 75 L 172 73 L 169 72 L 164 65 L 161 60 L 163 59 L 159 61 L 157 59 L 154 58 L 152 55 L 150 55 L 149 53 L 147 52 L 146 53 L 143 52 L 141 50 L 138 50 L 136 48 L 134 48 L 132 48 L 130 48 L 128 46 L 125 46 L 124 47 L 121 47 L 111 47 L 108 47 L 107 46 L 104 46 L 102 48 L 96 48 L 94 50 L 91 50 L 87 52 L 87 49 L 88 49 L 90 47 L 91 47 Z M 107 68 L 124 68 L 126 70 L 131 70 L 134 71 L 136 72 L 137 73 L 140 74 L 143 77 L 145 77 L 155 87 L 155 89 L 159 94 L 158 96 L 160 100 L 162 102 L 163 104 L 163 106 L 162 108 L 164 111 L 164 119 L 160 122 L 159 120 L 158 123 L 157 125 L 159 124 L 159 123 L 162 123 L 162 124 L 163 126 L 162 128 L 161 133 L 158 134 L 159 137 L 157 140 L 154 142 L 154 144 L 144 154 L 141 156 L 137 157 L 134 160 L 131 160 L 128 162 L 122 163 L 109 163 L 103 162 L 101 161 L 99 159 L 96 159 L 92 157 L 90 156 L 88 155 L 86 152 L 80 147 L 81 143 L 84 146 L 82 144 L 81 143 L 80 139 L 80 142 L 76 143 L 77 139 L 75 139 L 74 138 L 72 136 L 72 133 L 70 130 L 70 128 L 71 126 L 69 126 L 69 119 L 68 118 L 68 112 L 69 111 L 69 104 L 71 103 L 71 98 L 73 97 L 73 94 L 75 92 L 75 90 L 78 86 L 80 83 L 83 80 L 84 80 L 88 76 L 90 76 L 92 74 L 94 74 L 96 72 L 98 72 L 100 70 L 105 70 Z" fill="#071A36" fill-rule="evenodd"/>
</svg>
