<svg xmlns="http://www.w3.org/2000/svg" width="256" height="256" viewBox="0 0 256 256" role="img" aria-label="06_filter">
  <path d="M 216 51 L 216 55 L 218 56 L 218 63 L 219 55 L 217 54 L 217 53 Z M 40 52 L 40 53 L 38 55 L 38 64 L 39 56 L 41 54 L 42 51 Z M 148 48 L 49 49 L 46 51 L 44 53 L 44 55 L 42 57 L 42 63 L 40 65 L 40 69 L 42 71 L 44 72 L 46 68 L 46 69 L 48 71 L 49 74 L 52 79 L 56 79 L 61 85 L 64 89 L 64 91 L 64 95 L 69 94 L 72 98 L 74 99 L 75 100 L 76 101 L 78 105 L 80 107 L 83 111 L 81 114 L 84 112 L 85 114 L 88 115 L 92 119 L 93 120 L 98 127 L 105 135 L 103 137 L 98 131 L 100 133 L 101 134 L 103 138 L 106 136 L 109 139 L 107 144 L 107 195 L 109 193 L 112 196 L 112 198 L 114 201 L 116 200 L 119 203 L 126 204 L 128 206 L 131 207 L 136 208 L 141 208 L 146 206 L 147 200 L 148 145 L 147 141 L 148 139 L 149 137 L 153 132 L 155 130 L 157 129 L 160 130 L 159 126 L 161 123 L 168 115 L 170 113 L 171 113 L 174 110 L 177 105 L 183 98 L 185 96 L 187 95 L 190 96 L 189 99 L 191 96 L 192 94 L 191 90 L 194 86 L 200 81 L 204 77 L 205 74 L 213 66 L 213 63 L 215 60 L 215 58 L 213 56 L 213 53 L 208 49 L 156 48 Z" fill="#071A36" fill-rule="evenodd"/>
</svg>
