<svg xmlns="http://www.w3.org/2000/svg" width="256" height="256" viewBox="0 0 256 256" role="img" aria-label="07_sort">
  <path d="M 122 79 L 123 85 L 122 88 L 117 92 L 116 94 L 118 92 L 119 92 L 120 91 L 123 87 L 124 84 L 124 81 Z M 169 46 L 167 48 L 165 48 L 165 50 L 163 52 L 162 54 L 162 165 L 159 168 L 142 168 L 139 170 L 137 167 L 139 165 L 136 167 L 134 171 L 137 168 L 139 171 L 137 175 L 138 179 L 140 181 L 145 188 L 147 188 L 149 190 L 154 196 L 155 198 L 152 199 L 154 201 L 158 206 L 162 205 L 164 206 L 165 207 L 167 210 L 170 213 L 173 213 L 181 205 L 185 206 L 184 208 L 187 207 L 187 205 L 192 199 L 193 198 L 194 198 L 195 195 L 185 205 L 184 203 L 189 198 L 189 197 L 194 193 L 195 192 L 196 189 L 207 177 L 206 171 L 208 168 L 205 169 L 204 167 L 184 168 L 182 166 L 182 52 L 185 50 L 184 48 L 184 50 L 182 52 L 181 50 L 181 47 L 179 49 L 177 49 L 175 46 Z M 81 46 L 58 70 L 54 74 L 51 76 L 50 76 L 49 79 L 47 81 L 46 86 L 46 89 L 49 86 L 48 90 L 51 88 L 53 91 L 72 91 L 74 94 L 73 97 L 74 206 L 76 208 L 79 210 L 81 211 L 85 211 L 88 210 L 93 206 L 93 203 L 93 201 L 95 91 L 112 91 L 116 90 L 118 88 L 118 85 L 120 83 L 117 78 L 109 70 L 109 67 L 111 67 L 110 65 L 108 63 L 104 59 L 101 61 L 99 60 L 93 54 L 89 48 L 87 46 L 85 46 L 84 47 Z M 104 60 L 107 63 L 105 65 L 102 62 Z" fill="#071A36" fill-rule="evenodd"/>
</svg>
