<svg xmlns="http://www.w3.org/2000/svg" width="256" height="256" viewBox="0 0 256 256" role="img" aria-label="08_bell">
  <path d="M 110 197 L 110 200 L 112 202 L 112 205 L 114 207 L 118 211 L 123 214 L 128 215 L 133 215 L 138 214 L 140 213 L 141 212 L 141 211 L 144 210 L 147 206 L 148 205 L 150 204 L 149 202 L 151 200 L 151 196 Z M 196 191 L 111 193 L 68 193 L 107 192 L 109 192 L 192 193 L 193 192 Z M 127 39 L 128 42 L 125 45 L 121 46 L 120 44 L 122 41 L 116 48 L 118 47 L 120 49 L 119 51 L 117 54 L 118 58 L 114 61 L 111 62 L 108 62 L 105 65 L 103 65 L 100 68 L 97 69 L 93 70 L 94 68 L 94 71 L 90 75 L 89 77 L 89 79 L 86 81 L 86 84 L 84 86 L 84 88 L 81 90 L 81 92 L 80 95 L 80 99 L 78 101 L 78 125 L 76 130 L 76 145 L 73 146 L 73 149 L 71 152 L 73 149 L 73 148 L 76 148 L 76 150 L 74 152 L 74 155 L 70 162 L 66 166 L 63 167 L 61 168 L 60 171 L 58 173 L 58 181 L 61 184 L 62 185 L 63 185 L 65 187 L 196 187 L 201 182 L 203 179 L 203 174 L 201 173 L 201 171 L 199 169 L 199 167 L 197 167 L 195 167 L 195 163 L 193 163 L 192 161 L 190 161 L 188 159 L 188 158 L 186 155 L 185 152 L 185 137 L 183 130 L 184 118 L 184 108 L 181 102 L 181 99 L 182 98 L 182 96 L 179 95 L 179 92 L 182 87 L 180 85 L 180 82 L 178 80 L 179 83 L 177 85 L 175 84 L 174 81 L 173 80 L 170 78 L 170 77 L 168 74 L 167 73 L 165 71 L 162 70 L 160 66 L 158 66 L 157 66 L 156 65 L 152 63 L 150 62 L 149 60 L 145 61 L 142 58 L 142 56 L 142 50 L 141 49 L 141 47 L 138 46 L 138 44 L 134 43 L 136 39 L 133 39 L 133 41 L 131 43 L 128 42 L 129 39 Z" fill="#071A36" fill-rule="evenodd"/>
</svg>
