<svg xmlns="http://www.w3.org/2000/svg" width="256" height="256" viewBox="0 0 256 256" role="img" aria-label="09_calendar">
  <path d="M 99 184 L 82 185 L 98 185 L 101 183 Z M 143 160 L 143 177 L 144 175 Z M 158 157 L 156 159 L 155 159 L 154 178 L 156 180 L 158 181 L 161 180 L 172 181 L 177 176 L 178 174 L 178 167 L 176 162 L 176 159 L 173 157 Z M 116 161 L 116 165 L 116 169 L 116 175 L 116 177 L 118 179 L 120 181 L 135 181 L 140 176 L 140 161 L 136 157 L 134 157 L 121 157 Z M 83 157 L 81 158 L 79 162 L 80 172 L 79 175 L 80 176 L 79 179 L 81 180 L 84 181 L 97 181 L 102 179 L 102 175 L 104 173 L 103 163 L 103 158 L 105 159 L 102 157 L 85 157 Z M 121 122 L 118 123 L 116 125 L 116 141 L 114 143 L 114 123 L 114 144 L 117 144 L 117 147 L 118 145 L 139 146 L 137 148 L 139 146 L 138 144 L 140 141 L 140 124 L 141 122 L 139 124 L 138 122 L 136 122 L 125 122 Z M 83 122 L 81 123 L 79 127 L 79 132 L 80 143 L 83 145 L 100 144 L 100 143 L 102 141 L 103 139 L 103 127 L 102 125 L 100 123 L 98 122 Z M 160 121 L 157 122 L 154 125 L 154 143 L 156 145 L 173 145 L 176 142 L 177 140 L 177 127 L 176 126 L 176 124 L 174 123 L 174 121 Z M 87 44 L 84 45 L 80 49 L 78 49 L 77 49 L 80 51 L 79 56 L 80 69 L 79 74 L 79 77 L 76 79 L 74 77 L 75 74 L 73 72 L 73 68 L 72 67 L 72 65 L 62 65 L 60 67 L 59 67 L 57 67 L 53 69 L 47 75 L 47 76 L 45 78 L 46 80 L 44 83 L 43 194 L 45 198 L 44 202 L 47 201 L 47 203 L 45 205 L 48 204 L 50 205 L 51 206 L 55 211 L 57 210 L 59 212 L 62 213 L 192 213 L 197 212 L 200 211 L 207 204 L 211 195 L 212 195 L 213 83 L 210 79 L 210 77 L 209 75 L 203 69 L 200 67 L 196 64 L 188 66 L 186 65 L 183 68 L 181 73 L 183 74 L 183 76 L 180 79 L 176 77 L 179 50 L 180 50 L 181 60 L 181 50 L 180 48 L 179 46 L 176 49 L 174 47 L 172 45 L 165 44 L 162 46 L 161 49 L 159 51 L 160 66 L 160 69 L 160 76 L 156 80 L 153 75 L 154 68 L 151 67 L 151 65 L 105 65 L 103 68 L 102 73 L 103 76 L 101 78 L 97 78 L 97 51 L 100 49 L 100 51 L 100 49 L 98 47 L 97 45 L 96 48 L 94 47 L 92 45 L 89 44 Z M 67 108 L 103 109 L 121 109 L 146 109 L 160 108 L 176 108 L 179 108 L 188 109 L 191 110 L 194 113 L 193 116 L 194 185 L 190 186 L 190 117 L 190 188 L 188 190 L 76 190 L 188 190 L 193 188 L 193 190 L 190 193 L 186 194 L 68 194 L 66 193 L 64 191 L 63 190 L 62 175 L 62 152 L 62 137 L 63 112 Z" fill="#071A36" fill-rule="evenodd"/>
</svg>
