<svg xmlns="http://www.w3.org/2000/svg" width="256" height="256" viewBox="0 0 256 256" role="img" aria-label="10_user">
  <path d="M 209 201 L 205 206 L 205 209 L 208 206 L 208 204 L 210 202 L 210 188 Z M 113 139 L 110 140 L 106 141 L 103 140 L 100 142 L 96 142 L 94 144 L 91 144 L 88 145 L 86 147 L 84 147 L 77 153 L 74 154 L 71 156 L 67 160 L 66 158 L 69 155 L 67 156 L 64 159 L 63 161 L 66 159 L 68 161 L 66 163 L 66 164 L 63 167 L 63 169 L 61 171 L 61 173 L 59 179 L 56 182 L 56 184 L 57 189 L 57 200 L 56 205 L 58 206 L 57 209 L 61 209 L 63 212 L 66 212 L 67 214 L 71 213 L 189 214 L 193 213 L 196 212 L 201 208 L 202 207 L 202 206 L 204 204 L 205 199 L 205 189 L 204 182 L 202 180 L 201 177 L 201 174 L 199 172 L 199 168 L 201 167 L 197 162 L 197 160 L 196 162 L 194 164 L 193 162 L 184 153 L 179 149 L 175 148 L 173 146 L 171 146 L 169 143 L 165 143 L 163 143 L 160 141 L 155 141 L 146 138 L 136 138 L 115 138 Z M 125 41 L 121 43 L 117 43 L 115 45 L 112 45 L 110 46 L 107 49 L 105 49 L 97 58 L 95 60 L 94 60 L 93 64 L 91 67 L 89 69 L 87 65 L 86 69 L 84 71 L 83 78 L 84 73 L 86 71 L 86 70 L 89 70 L 89 73 L 87 76 L 87 78 L 87 95 L 89 97 L 89 100 L 91 102 L 91 105 L 93 107 L 94 109 L 94 111 L 92 113 L 91 110 L 91 112 L 93 114 L 94 116 L 94 111 L 97 112 L 100 117 L 103 118 L 104 121 L 106 122 L 109 123 L 111 125 L 109 127 L 112 125 L 116 126 L 120 127 L 125 130 L 134 130 L 140 127 L 143 127 L 146 126 L 148 124 L 150 124 L 152 123 L 153 122 L 153 121 L 155 119 L 157 119 L 159 117 L 162 118 L 155 124 L 162 119 L 163 118 L 163 117 L 164 116 L 163 113 L 164 110 L 168 106 L 168 103 L 169 100 L 171 98 L 175 99 L 175 95 L 173 98 L 172 96 L 171 95 L 171 92 L 173 88 L 173 81 L 171 77 L 172 73 L 169 70 L 169 67 L 168 66 L 168 64 L 166 62 L 164 60 L 164 58 L 165 56 L 163 52 L 158 48 L 156 51 L 154 50 L 151 47 L 148 47 L 147 45 L 145 45 L 143 43 L 139 43 L 135 41 Z" fill="#071A36" fill-rule="evenodd"/>
</svg>
