<svg xmlns="http://www.w3.org/2000/svg" width="256" height="256" viewBox="0 0 256 256" role="img" aria-label="11_users">
  <path d="M 155 133 L 155 135 L 158 137 L 157 139 L 160 139 L 162 141 L 160 143 L 158 142 L 161 144 L 163 142 L 167 146 L 169 149 L 170 151 L 170 153 L 172 155 L 171 157 L 174 160 L 175 164 L 176 171 L 177 178 L 176 180 L 178 181 L 199 182 L 208 182 L 213 179 L 216 176 L 218 173 L 218 163 L 216 160 L 216 157 L 214 155 L 213 151 L 211 149 L 213 146 L 216 149 L 215 147 L 213 145 L 211 144 L 209 146 L 206 142 L 201 137 L 198 137 L 196 135 L 193 134 L 187 132 Z M 85 132 L 80 133 L 76 134 L 68 137 L 63 141 L 61 141 L 57 144 L 53 147 L 47 154 L 45 157 L 44 159 L 44 162 L 42 164 L 42 168 L 41 170 L 39 172 L 38 167 L 38 170 L 37 171 L 37 186 L 38 187 L 39 190 L 40 187 L 42 189 L 43 191 L 46 194 L 49 196 L 156 196 L 158 195 L 162 191 L 163 189 L 163 186 L 165 184 L 165 181 L 164 172 L 163 166 L 160 160 L 160 157 L 161 156 L 161 154 L 160 152 L 158 155 L 157 151 L 155 150 L 157 147 L 156 149 L 154 151 L 153 149 L 151 147 L 150 146 L 148 145 L 146 142 L 144 141 L 141 140 L 141 138 L 139 139 L 138 137 L 135 136 L 132 136 L 129 134 L 125 133 L 121 132 L 115 132 L 91 133 L 87 132 Z M 144 87 L 144 90 L 143 91 L 142 98 L 144 98 Z M 164 69 L 159 71 L 154 74 L 147 81 L 147 101 L 145 103 L 145 109 L 147 111 L 148 113 L 148 115 L 147 117 L 149 115 L 152 118 L 149 119 L 151 120 L 154 119 L 155 119 L 156 120 L 158 120 L 159 122 L 162 122 L 165 124 L 172 124 L 174 122 L 178 122 L 181 119 L 183 119 L 191 112 L 192 108 L 195 105 L 195 101 L 198 99 L 200 102 L 198 105 L 200 102 L 200 88 L 197 92 L 195 90 L 195 85 L 197 83 L 195 81 L 195 79 L 192 82 L 191 80 L 189 78 L 186 75 L 183 74 L 178 72 L 176 70 L 174 69 Z M 111 56 L 111 58 L 108 60 L 97 60 L 93 59 L 91 61 L 89 61 L 84 65 L 82 65 L 76 71 L 76 73 L 72 78 L 72 80 L 70 82 L 71 86 L 71 95 L 70 100 L 72 101 L 72 104 L 74 106 L 75 110 L 78 111 L 82 115 L 83 119 L 85 118 L 90 120 L 92 122 L 95 122 L 95 124 L 97 123 L 106 124 L 109 122 L 113 123 L 113 125 L 113 123 L 114 121 L 117 120 L 120 117 L 125 114 L 128 115 L 125 117 L 122 120 L 130 113 L 128 110 L 131 104 L 133 102 L 133 100 L 135 98 L 135 84 L 133 82 L 134 80 L 131 77 L 131 74 L 130 72 L 132 70 L 129 73 L 128 71 L 127 70 L 127 67 L 125 66 L 121 65 L 116 61 L 112 60 L 113 56 Z" fill="#071A36" fill-rule="evenodd"/>
</svg>
