<svg xmlns="http://www.w3.org/2000/svg" width="256" height="256" viewBox="0 0 256 256" role="img" aria-label="12_hierarchy">
  <path d="M 71 181 L 68 182 L 62 186 L 59 187 L 56 191 L 54 192 L 53 190 L 51 193 L 54 192 L 54 195 L 50 200 L 50 209 L 49 211 L 51 210 L 53 212 L 56 213 L 116 213 L 120 209 L 119 200 L 118 197 L 119 195 L 120 193 L 118 196 L 117 192 L 112 188 L 107 184 L 102 183 L 100 181 Z M 193 181 L 189 182 L 160 181 L 156 182 L 153 184 L 148 188 L 146 190 L 146 191 L 143 195 L 140 194 L 140 192 L 139 197 L 142 199 L 140 202 L 141 209 L 139 211 L 142 212 L 140 214 L 143 212 L 203 213 L 208 211 L 210 208 L 210 201 L 208 201 L 208 197 L 206 196 L 206 193 L 208 191 L 207 189 L 205 188 L 204 191 L 202 190 L 201 188 L 200 186 L 201 184 L 199 183 L 201 184 L 199 186 L 196 185 L 193 183 L 194 179 Z M 171 137 L 167 138 L 165 140 L 162 141 L 161 139 L 154 145 L 156 143 L 160 143 L 159 146 L 157 148 L 157 150 L 155 153 L 155 159 L 155 161 L 157 163 L 157 165 L 159 167 L 160 170 L 158 172 L 157 170 L 158 173 L 160 174 L 164 173 L 167 177 L 180 176 L 184 174 L 184 173 L 185 172 L 192 166 L 193 163 L 194 158 L 195 154 L 193 153 L 193 150 L 192 147 L 186 141 L 181 138 L 178 137 Z M 82 137 L 79 138 L 76 139 L 73 140 L 69 146 L 67 147 L 64 147 L 63 149 L 68 148 L 67 153 L 65 155 L 65 158 L 67 160 L 67 164 L 65 166 L 64 164 L 65 166 L 66 168 L 69 168 L 70 168 L 71 170 L 69 172 L 71 177 L 71 175 L 70 174 L 72 171 L 74 173 L 75 173 L 76 175 L 78 174 L 80 176 L 91 176 L 96 173 L 101 172 L 100 174 L 104 170 L 101 172 L 100 170 L 104 165 L 103 163 L 106 159 L 107 158 L 108 156 L 106 156 L 106 154 L 105 152 L 103 151 L 103 149 L 102 147 L 105 145 L 104 143 L 101 144 L 99 143 L 98 142 L 97 139 L 95 139 L 93 139 L 89 137 Z M 172 130 L 170 131 L 171 133 L 176 133 Z M 144 93 L 117 94 L 115 96 L 110 96 L 108 98 L 106 98 L 104 100 L 101 100 L 99 103 L 94 107 L 90 113 L 91 115 L 88 117 L 89 121 L 89 123 L 87 125 L 84 124 L 85 127 L 88 125 L 91 128 L 93 129 L 98 130 L 132 131 L 135 131 L 164 130 L 167 129 L 171 127 L 172 125 L 172 117 L 170 116 L 170 111 L 171 110 L 171 108 L 169 110 L 166 109 L 165 104 L 162 103 L 159 101 L 157 99 L 155 100 L 154 98 L 151 98 L 149 96 L 144 95 Z M 156 56 L 158 57 L 158 70 L 159 58 L 157 54 Z M 126 39 L 121 41 L 119 43 L 117 43 L 111 50 L 109 52 L 106 52 L 109 53 L 107 55 L 106 60 L 107 68 L 107 73 L 106 74 L 106 76 L 108 77 L 111 78 L 112 81 L 114 83 L 117 85 L 120 87 L 122 87 L 124 89 L 136 89 L 138 87 L 140 88 L 148 85 L 146 88 L 147 86 L 151 83 L 152 82 L 152 81 L 153 79 L 151 81 L 150 78 L 151 76 L 152 75 L 154 74 L 157 74 L 157 72 L 153 71 L 155 69 L 155 59 L 153 57 L 153 55 L 152 53 L 152 50 L 154 48 L 151 51 L 150 48 L 148 46 L 150 44 L 147 46 L 144 44 L 140 41 L 135 39 Z" fill="#071A36" fill-rule="evenodd"/>
</svg>
