<svg xmlns="http://www.w3.org/2000/svg" width="256" height="256" viewBox="0 0 256 256" role="img" aria-label="14_chat">
  <path d="M 74 189 L 74 207 L 76 209 L 76 207 L 74 205 L 75 191 Z M 65 46 L 63 48 L 60 48 L 57 51 L 54 52 L 51 50 L 50 52 L 48 54 L 51 54 L 50 57 L 48 59 L 46 56 L 44 59 L 44 60 L 43 62 L 45 60 L 45 59 L 48 59 L 48 61 L 46 63 L 44 68 L 44 72 L 44 126 L 44 134 L 44 156 L 44 160 L 47 165 L 44 169 L 46 171 L 47 169 L 50 170 L 51 172 L 48 173 L 50 175 L 51 177 L 51 174 L 53 174 L 55 176 L 57 178 L 61 180 L 59 183 L 61 182 L 62 179 L 64 179 L 66 181 L 79 182 L 78 204 L 80 207 L 82 208 L 83 210 L 87 209 L 90 208 L 99 199 L 104 196 L 109 190 L 113 187 L 117 185 L 121 181 L 192 181 L 199 179 L 203 177 L 203 176 L 207 172 L 209 170 L 211 169 L 213 169 L 213 171 L 217 167 L 214 170 L 213 168 L 212 167 L 213 164 L 215 163 L 215 158 L 219 159 L 218 163 L 218 160 L 220 158 L 216 70 L 214 68 L 214 65 L 213 63 L 213 59 L 214 57 L 212 60 L 211 58 L 207 54 L 203 50 L 201 50 L 199 48 L 197 48 L 195 46 L 193 46 L 191 47 L 67 46 Z M 83 106 L 86 105 L 90 107 L 92 107 L 96 105 L 100 106 L 101 108 L 103 113 L 102 115 L 99 119 L 99 121 L 97 123 L 92 125 L 89 125 L 87 123 L 84 122 L 81 119 L 82 115 L 81 109 L 83 107 Z M 164 103 L 167 103 L 167 105 L 170 104 L 171 103 L 174 104 L 172 106 L 175 105 L 177 108 L 175 110 L 179 110 L 180 112 L 180 114 L 178 119 L 174 123 L 172 122 L 169 125 L 167 125 L 162 123 L 159 120 L 160 117 L 157 115 L 157 112 L 159 107 L 161 105 Z M 126 103 L 128 103 L 129 104 L 131 104 L 132 103 L 136 104 L 137 105 L 139 108 L 141 109 L 140 118 L 135 123 L 133 123 L 131 125 L 128 125 L 124 122 L 123 121 L 123 120 L 122 118 L 123 114 L 120 116 L 119 113 L 120 112 L 120 108 L 123 105 L 125 105 L 125 105 Z M 93 103 L 97 104 L 95 106 L 92 105 Z" fill="#071A36" fill-rule="evenodd"/>
</svg>
