<svg xmlns="http://www.w3.org/2000/svg" width="256" height="256" viewBox="0 0 256 256" role="img" aria-label="15_star">
  <path d="M 73 165 L 72 171 L 74 171 L 74 167 Z M 186 146 L 183 149 L 182 149 L 179 152 L 179 155 L 181 156 L 181 161 L 181 155 L 180 153 L 182 150 Z M 126 44 L 124 47 L 121 48 L 119 48 L 119 51 L 117 53 L 117 55 L 115 57 L 115 61 L 114 64 L 111 67 L 111 70 L 109 72 L 110 74 L 108 77 L 106 81 L 104 84 L 102 85 L 104 87 L 102 89 L 102 91 L 100 94 L 98 96 L 95 97 L 88 96 L 80 99 L 74 98 L 69 100 L 62 100 L 58 102 L 51 102 L 48 103 L 46 104 L 45 106 L 45 109 L 44 110 L 44 112 L 45 117 L 47 119 L 49 121 L 51 122 L 57 129 L 70 141 L 71 143 L 70 146 L 73 150 L 76 148 L 79 150 L 81 152 L 81 154 L 79 156 L 80 162 L 77 166 L 77 173 L 75 175 L 76 182 L 73 185 L 74 192 L 71 197 L 71 203 L 74 205 L 74 207 L 78 210 L 85 210 L 88 209 L 90 207 L 92 207 L 93 205 L 96 205 L 98 202 L 100 202 L 102 200 L 106 199 L 111 195 L 113 195 L 115 193 L 117 193 L 122 189 L 124 189 L 126 187 L 128 187 L 129 188 L 132 188 L 134 189 L 136 191 L 138 191 L 139 193 L 141 193 L 145 196 L 143 198 L 142 199 L 144 197 L 148 198 L 146 200 L 144 201 L 149 198 L 151 199 L 153 201 L 155 201 L 156 203 L 159 203 L 160 205 L 165 206 L 166 208 L 168 208 L 170 210 L 176 210 L 178 210 L 180 209 L 184 205 L 184 203 L 186 200 L 185 198 L 183 196 L 184 188 L 181 184 L 182 180 L 181 177 L 179 174 L 180 170 L 179 168 L 177 165 L 178 161 L 176 157 L 177 150 L 184 144 L 201 127 L 212 116 L 213 113 L 213 111 L 212 106 L 214 103 L 210 104 L 211 102 L 209 103 L 207 103 L 201 102 L 196 100 L 187 100 L 182 98 L 174 99 L 167 96 L 157 95 L 157 94 L 155 92 L 155 89 L 153 88 L 153 85 L 151 83 L 151 81 L 149 79 L 149 77 L 147 75 L 147 72 L 145 71 L 144 67 L 144 64 L 141 62 L 140 55 L 137 52 L 137 50 L 134 47 L 131 46 L 131 45 Z" fill="#071A36" fill-rule="evenodd"/>
</svg>
