<svg xmlns="http://www.w3.org/2000/svg" width="256" height="256" viewBox="0 0 256 256" role="img" aria-label="16_settings">
  <path d="M 105 49 L 104 59 L 106 58 Z M 117 41 L 115 43 L 112 43 L 110 45 L 108 43 L 107 46 L 110 45 L 110 46 L 111 48 L 109 50 L 109 58 L 109 61 L 106 64 L 104 64 L 102 66 L 99 65 L 97 67 L 93 65 L 92 63 L 88 60 L 83 57 L 79 57 L 76 58 L 71 64 L 69 66 L 59 75 L 58 80 L 60 82 L 60 85 L 62 87 L 67 92 L 68 94 L 69 97 L 67 100 L 64 103 L 65 106 L 63 108 L 52 108 L 49 109 L 47 111 L 46 111 L 45 114 L 42 117 L 42 125 L 43 139 L 44 140 L 44 143 L 47 144 L 47 146 L 49 146 L 51 148 L 65 149 L 67 153 L 66 157 L 69 159 L 66 162 L 66 164 L 59 172 L 59 180 L 62 181 L 62 183 L 61 184 L 61 186 L 65 185 L 69 189 L 70 191 L 69 193 L 70 195 L 72 197 L 74 196 L 74 198 L 82 197 L 84 197 L 87 195 L 92 190 L 95 188 L 98 188 L 101 189 L 107 191 L 109 193 L 108 198 L 109 205 L 110 206 L 110 209 L 115 213 L 139 214 L 141 212 L 143 212 L 145 210 L 147 206 L 146 203 L 147 193 L 149 191 L 152 191 L 155 189 L 158 188 L 162 189 L 163 190 L 166 192 L 170 195 L 170 197 L 176 198 L 179 197 L 182 197 L 181 199 L 187 193 L 184 196 L 183 194 L 193 187 L 192 190 L 199 183 L 201 178 L 201 180 L 199 182 L 198 172 L 194 169 L 192 166 L 191 164 L 188 162 L 188 159 L 190 154 L 192 152 L 193 148 L 205 148 L 207 146 L 209 146 L 212 143 L 212 140 L 214 138 L 214 117 L 212 115 L 212 113 L 210 111 L 205 108 L 194 108 L 192 106 L 192 103 L 190 102 L 189 99 L 188 93 L 191 90 L 192 90 L 196 86 L 198 83 L 198 79 L 197 78 L 197 75 L 198 71 L 197 71 L 194 71 L 192 65 L 190 67 L 187 64 L 187 60 L 183 56 L 180 58 L 178 58 L 173 57 L 170 59 L 167 62 L 164 63 L 162 66 L 159 67 L 158 65 L 154 66 L 153 63 L 148 62 L 147 60 L 146 51 L 146 49 L 147 48 L 147 46 L 145 45 L 142 44 L 140 41 Z M 118 94 L 120 94 L 121 95 L 123 95 L 134 94 L 136 94 L 140 97 L 144 97 L 146 98 L 150 101 L 155 106 L 158 110 L 158 112 L 159 116 L 161 117 L 161 120 L 159 122 L 161 123 L 162 136 L 160 138 L 157 139 L 159 140 L 156 143 L 158 144 L 156 146 L 155 146 L 154 147 L 148 154 L 144 154 L 147 155 L 145 157 L 143 158 L 140 158 L 138 160 L 136 161 L 132 160 L 130 162 L 126 162 L 123 160 L 119 161 L 117 159 L 114 159 L 111 157 L 108 153 L 110 151 L 107 154 L 103 150 L 103 146 L 104 145 L 101 147 L 99 145 L 97 142 L 97 139 L 95 137 L 95 134 L 95 122 L 95 119 L 97 116 L 97 113 L 99 111 L 99 109 L 102 105 L 106 101 L 110 98 L 112 98 L 114 96 L 116 96 Z" fill="#071A36" fill-rule="evenodd"/>
</svg>
