<svg xmlns="http://www.w3.org/2000/svg" width="256" height="256" viewBox="0 0 256 256" role="img" aria-label="17_folder">
  <path d="M 48 51 L 45 54 L 45 55 L 43 57 L 42 57 L 41 58 L 41 59 L 39 61 L 39 63 L 39 61 L 43 58 L 45 61 L 43 64 L 43 66 L 42 68 L 38 68 L 37 136 L 38 170 L 38 179 L 37 180 L 37 187 L 42 187 L 42 188 L 43 190 L 42 192 L 40 194 L 39 191 L 39 194 L 41 195 L 44 195 L 50 201 L 53 203 L 56 204 L 66 205 L 71 205 L 111 205 L 131 204 L 134 204 L 135 205 L 139 205 L 197 203 L 200 204 L 203 201 L 205 201 L 208 201 L 205 205 L 211 199 L 212 197 L 211 199 L 207 199 L 211 194 L 212 190 L 213 184 L 213 92 L 211 90 L 211 86 L 213 84 L 210 86 L 208 84 L 207 79 L 203 78 L 205 76 L 202 79 L 199 78 L 198 76 L 125 77 L 124 75 L 122 74 L 122 71 L 124 69 L 122 70 L 118 69 L 115 64 L 115 62 L 112 61 L 111 60 L 108 56 L 107 56 L 105 53 L 101 54 L 99 52 L 94 51 L 79 51 L 56 52 L 54 54 L 51 54 L 49 55 L 47 56 L 44 59 L 43 57 Z M 42 71 L 42 73 L 38 74 L 38 72 Z" fill="#071A36" fill-rule="evenodd"/>
</svg>
