<svg xmlns="http://www.w3.org/2000/svg" width="256" height="256" viewBox="0 0 256 256" role="img" aria-label="18_file">
  <path d="M 75 40 L 73 42 L 70 42 L 66 44 L 64 42 L 60 47 L 59 50 L 61 47 L 61 46 L 65 45 L 64 49 L 62 54 L 62 204 L 64 205 L 64 208 L 66 210 L 70 214 L 72 214 L 73 215 L 77 216 L 91 216 L 108 215 L 183 216 L 188 215 L 190 214 L 191 213 L 191 212 L 193 210 L 194 210 L 197 207 L 197 204 L 199 202 L 199 93 L 197 91 L 197 88 L 199 86 L 197 85 L 195 83 L 193 81 L 192 79 L 188 79 L 186 73 L 183 70 L 181 73 L 148 40 Z M 147 65 L 149 69 L 152 71 L 155 71 L 156 72 L 157 73 L 167 84 L 165 86 L 168 85 L 174 92 L 177 94 L 175 96 L 148 95 L 146 93 Z M 77 36 L 75 37 L 147 37 L 145 37 L 144 36 Z" fill="#071A36" fill-rule="evenodd"/>
</svg>
