<svg xmlns="http://www.w3.org/2000/svg" width="256" height="256" viewBox="0 0 256 256" role="img" aria-label="19_table">
  <path d="M 66 167 L 66 183 L 68 167 L 89 169 L 91 167 Z M 57 54 L 55 56 L 53 56 L 50 58 L 47 62 L 45 65 L 45 67 L 46 84 L 44 86 L 42 83 L 42 92 L 46 92 L 46 111 L 45 115 L 43 117 L 43 122 L 46 120 L 46 140 L 43 142 L 43 148 L 46 146 L 46 194 L 47 195 L 47 198 L 50 199 L 52 202 L 54 204 L 56 204 L 57 205 L 64 206 L 70 206 L 203 205 L 205 203 L 208 203 L 210 202 L 213 199 L 215 196 L 215 194 L 217 192 L 217 67 L 215 62 L 213 60 L 211 58 L 209 56 L 206 56 L 204 54 Z M 113 164 L 151 165 L 151 185 L 148 188 L 112 187 L 113 185 L 111 179 L 111 170 Z M 166 163 L 173 163 L 175 163 L 192 163 L 199 165 L 199 186 L 197 188 L 161 187 L 160 170 L 160 166 L 162 164 Z M 96 163 L 102 165 L 101 186 L 99 188 L 63 187 L 64 164 Z M 162 131 L 200 132 L 199 135 L 196 138 L 196 145 L 199 138 L 200 152 L 197 154 L 188 153 L 166 153 L 162 154 L 160 152 L 160 150 Z M 64 131 L 101 132 L 100 133 L 101 149 L 102 151 L 98 154 L 93 153 L 64 154 L 62 151 L 63 137 L 66 135 L 66 137 L 67 135 L 70 134 L 63 133 Z M 149 130 L 151 132 L 151 152 L 149 154 L 144 154 L 119 154 L 112 153 L 113 131 Z M 161 97 L 163 97 L 196 99 L 198 101 L 200 108 L 199 115 L 200 118 L 197 121 L 194 120 L 165 121 L 160 119 L 160 117 L 161 115 L 160 107 L 161 106 L 160 99 Z M 147 97 L 151 98 L 151 118 L 149 120 L 124 121 L 112 120 L 111 118 L 111 114 L 112 98 Z M 98 97 L 100 97 L 102 99 L 102 118 L 100 120 L 96 121 L 88 121 L 64 117 L 86 117 L 67 116 L 67 101 L 90 101 L 66 101 L 66 115 L 64 117 L 62 100 L 64 98 Z" fill="#071A36" fill-rule="evenodd"/>
</svg>
