<svg xmlns="http://www.w3.org/2000/svg" width="256" height="256" viewBox="0 0 256 256" role="img" aria-label="20_form_list">
  <path d="M 72 220 L 184 219 L 145 219 L 144 220 L 88 220 L 87 219 Z M 93 80 L 95 79 L 162 79 L 165 79 Z M 71 43 L 69 45 L 67 45 L 59 53 L 58 58 L 57 71 L 57 86 L 59 102 L 59 118 L 57 126 L 57 136 L 59 154 L 59 168 L 57 176 L 57 186 L 59 193 L 59 205 L 62 206 L 63 209 L 65 211 L 69 214 L 72 214 L 73 215 L 82 215 L 147 215 L 183 215 L 186 213 L 189 213 L 192 211 L 196 206 L 196 205 L 198 203 L 197 200 L 198 71 L 200 65 L 199 62 L 200 60 L 197 57 L 197 55 L 198 53 L 201 52 L 199 50 L 197 53 L 196 50 L 194 49 L 192 47 L 190 45 L 187 45 L 186 43 Z M 163 157 L 166 157 L 169 158 L 172 161 L 172 163 L 170 165 L 168 164 L 168 166 L 172 167 L 170 169 L 169 169 L 166 172 L 159 172 L 152 170 L 149 168 L 149 161 L 152 158 Z M 90 149 L 129 150 L 130 151 L 132 153 L 132 175 L 130 177 L 127 179 L 91 179 L 87 177 L 86 174 L 86 160 L 88 150 Z M 167 112 L 169 112 L 172 115 L 172 121 L 171 123 L 169 125 L 166 126 L 92 126 L 89 124 L 87 122 L 87 116 L 88 113 Z M 89 76 L 168 76 L 170 77 L 172 79 L 173 82 L 172 84 L 171 86 L 169 88 L 88 87 L 88 86 L 88 83 L 88 81 L 88 83 L 86 85 L 85 80 Z" fill="#071A36" fill-rule="evenodd"/>
</svg>
