<svg xmlns="http://www.w3.org/2000/svg" width="256" height="256" viewBox="0 0 256 256" role="img" aria-label="21_eye">
  <path d="M 139 105 L 140 107 L 138 109 L 136 109 L 134 107 L 131 107 L 125 107 L 122 107 L 120 108 L 118 110 L 116 110 L 114 112 L 112 113 L 110 111 L 110 116 L 110 118 L 108 120 L 108 122 L 106 124 L 106 132 L 108 134 L 109 137 L 111 142 L 111 146 L 115 145 L 118 146 L 118 148 L 121 148 L 123 150 L 135 150 L 138 147 L 140 147 L 147 140 L 151 134 L 151 132 L 151 126 L 151 124 L 149 122 L 152 118 L 152 120 L 153 118 L 150 115 L 148 118 L 147 116 L 145 114 L 141 111 L 140 109 L 141 107 Z M 125 70 L 119 72 L 113 71 L 111 73 L 106 73 L 104 75 L 100 75 L 97 76 L 95 78 L 93 78 L 90 80 L 89 78 L 86 78 L 84 83 L 78 86 L 76 89 L 74 89 L 68 94 L 61 100 L 54 107 L 54 109 L 50 113 L 48 114 L 47 112 L 49 109 L 53 104 L 58 100 L 62 95 L 52 104 L 48 109 L 45 113 L 43 116 L 42 119 L 40 122 L 43 121 L 43 123 L 41 125 L 41 129 L 39 131 L 38 125 L 38 131 L 42 132 L 43 134 L 41 137 L 43 139 L 43 141 L 47 138 L 48 140 L 48 142 L 47 143 L 47 145 L 49 148 L 52 146 L 53 146 L 54 147 L 54 148 L 58 154 L 62 156 L 66 160 L 67 160 L 69 166 L 71 164 L 73 165 L 77 169 L 82 172 L 84 173 L 86 173 L 87 175 L 89 175 L 89 177 L 93 177 L 94 179 L 96 178 L 97 180 L 100 180 L 102 182 L 107 183 L 110 183 L 115 184 L 118 186 L 140 185 L 145 184 L 149 183 L 154 182 L 156 180 L 159 180 L 162 179 L 164 177 L 166 177 L 171 173 L 173 173 L 176 170 L 180 169 L 183 167 L 191 159 L 198 155 L 201 151 L 203 147 L 207 143 L 210 144 L 208 146 L 208 147 L 205 151 L 209 147 L 209 145 L 214 140 L 216 137 L 219 133 L 219 131 L 219 133 L 215 137 L 214 134 L 216 124 L 214 123 L 213 122 L 210 118 L 210 116 L 212 114 L 210 111 L 208 114 L 205 111 L 209 109 L 207 107 L 205 106 L 203 108 L 202 106 L 192 97 L 193 93 L 190 95 L 188 94 L 186 92 L 185 92 L 184 91 L 184 87 L 182 89 L 180 88 L 178 87 L 174 84 L 173 83 L 173 80 L 168 80 L 166 80 L 164 78 L 160 77 L 158 76 L 157 74 L 152 75 L 151 73 L 146 73 L 144 71 L 137 72 L 132 70 Z M 47 116 L 47 118 L 45 120 L 43 121 L 42 119 L 44 117 L 44 115 Z M 120 93 L 123 93 L 133 93 L 137 93 L 139 95 L 143 96 L 141 98 L 138 99 L 142 97 L 146 97 L 148 98 L 149 103 L 151 105 L 152 101 L 156 105 L 157 107 L 160 109 L 162 114 L 163 117 L 161 119 L 164 120 L 165 122 L 165 134 L 163 141 L 161 143 L 161 145 L 160 147 L 151 156 L 146 160 L 143 160 L 139 161 L 139 158 L 137 159 L 139 161 L 137 163 L 134 164 L 120 163 L 118 160 L 120 158 L 117 158 L 118 160 L 115 162 L 113 160 L 112 160 L 112 157 L 114 156 L 112 156 L 110 159 L 108 158 L 108 153 L 104 150 L 106 151 L 107 153 L 105 155 L 100 151 L 98 145 L 96 144 L 96 142 L 94 140 L 96 136 L 97 138 L 98 136 L 94 135 L 93 133 L 92 130 L 92 126 L 93 122 L 96 120 L 97 122 L 98 119 L 95 120 L 94 116 L 98 111 L 98 109 L 99 107 L 105 101 L 114 97 L 115 95 Z" fill="#071A36" fill-rule="evenodd"/>
</svg>
