<svg xmlns="http://www.w3.org/2000/svg" width="256" height="256" viewBox="0 0 256 256" role="img" aria-label="22_eye_off">
  <path d="M 60 57 L 58 59 L 57 59 L 56 60 L 56 61 L 54 63 L 54 72 L 56 74 L 58 76 L 65 83 L 67 85 L 70 87 L 73 90 L 71 92 L 68 93 L 65 97 L 51 109 L 50 110 L 49 112 L 49 114 L 45 118 L 44 121 L 40 125 L 39 123 L 38 121 L 40 119 L 38 118 L 38 124 L 36 126 L 36 131 L 38 132 L 38 134 L 40 135 L 41 132 L 42 136 L 43 139 L 46 138 L 48 140 L 48 141 L 47 145 L 49 146 L 52 146 L 53 146 L 54 147 L 55 148 L 56 149 L 61 155 L 67 161 L 66 164 L 68 165 L 69 167 L 69 164 L 72 164 L 74 165 L 75 169 L 74 171 L 75 169 L 77 168 L 79 169 L 81 171 L 83 172 L 85 172 L 86 174 L 88 174 L 90 176 L 92 176 L 93 178 L 95 177 L 97 180 L 100 179 L 101 181 L 106 182 L 114 184 L 141 184 L 146 183 L 150 182 L 155 181 L 157 179 L 160 178 L 163 178 L 167 177 L 175 185 L 181 189 L 182 191 L 184 192 L 184 194 L 183 195 L 183 197 L 185 199 L 186 200 L 188 202 L 191 203 L 189 202 L 192 200 L 195 201 L 198 201 L 204 198 L 206 198 L 208 198 L 206 198 L 206 195 L 208 186 L 210 187 L 211 185 L 209 186 L 207 186 L 207 181 L 206 179 L 204 177 L 200 179 L 197 177 L 195 174 L 193 172 L 187 168 L 186 166 L 186 164 L 191 158 L 193 158 L 195 155 L 203 148 L 203 146 L 205 143 L 207 141 L 211 140 L 210 137 L 214 133 L 214 130 L 216 127 L 215 125 L 213 122 L 214 117 L 212 119 L 210 118 L 212 115 L 211 113 L 211 111 L 208 112 L 205 112 L 199 104 L 198 101 L 200 99 L 198 98 L 197 96 L 194 95 L 196 97 L 194 99 L 188 94 L 187 94 L 185 91 L 185 88 L 184 86 L 182 87 L 179 87 L 178 87 L 177 83 L 174 83 L 173 78 L 170 78 L 168 80 L 165 79 L 163 77 L 160 76 L 157 76 L 156 74 L 152 74 L 151 72 L 147 73 L 144 70 L 140 70 L 139 71 L 136 71 L 119 70 L 118 70 L 118 67 L 110 67 L 112 68 L 114 69 L 110 73 L 104 71 L 105 73 L 103 75 L 101 74 L 98 76 L 97 74 L 96 76 L 94 78 L 91 78 L 87 75 L 85 71 L 85 67 L 83 65 L 80 67 L 78 65 L 77 65 L 71 59 L 68 57 Z M 188 197 L 190 199 L 188 201 L 186 199 Z M 39 125 L 42 126 L 42 130 L 40 132 L 38 131 L 36 129 L 37 126 Z M 95 113 L 98 113 L 99 115 L 98 119 L 97 121 L 100 117 L 102 117 L 104 119 L 105 119 L 106 120 L 108 124 L 111 125 L 111 126 L 112 129 L 114 133 L 118 132 L 125 139 L 129 141 L 130 142 L 132 145 L 139 152 L 143 155 L 144 156 L 145 158 L 143 160 L 140 160 L 138 162 L 131 163 L 125 163 L 118 162 L 116 160 L 112 159 L 109 158 L 107 157 L 106 155 L 103 149 L 105 150 L 102 146 L 98 148 L 98 147 L 99 144 L 95 143 L 95 140 L 93 138 L 93 134 L 91 131 L 91 124 L 94 120 L 93 116 L 95 114 Z M 198 98 L 199 100 L 197 102 L 195 100 Z M 120 93 L 137 93 L 139 95 L 142 94 L 143 97 L 148 98 L 149 99 L 153 101 L 156 104 L 158 107 L 159 110 L 157 112 L 157 115 L 161 114 L 162 114 L 162 118 L 165 122 L 165 125 L 165 131 L 165 133 L 164 135 L 161 138 L 163 140 L 161 142 L 157 139 L 156 138 L 156 137 L 152 134 L 151 134 L 150 131 L 139 123 L 138 122 L 134 118 L 133 116 L 133 112 L 129 108 L 127 111 L 122 106 L 118 104 L 117 103 L 113 99 L 114 95 L 117 95 Z" fill="#071A36" fill-rule="evenodd"/>
</svg>
