<svg xmlns="http://www.w3.org/2000/svg" width="256" height="256" viewBox="0 0 256 256" role="img" aria-label="23_lock">
  <path d="M 118 38 L 121 40 L 117 44 L 114 43 L 112 45 L 110 45 L 105 49 L 100 51 L 91 61 L 91 63 L 87 68 L 85 73 L 86 76 L 84 80 L 82 82 L 81 77 L 80 79 L 80 84 L 83 84 L 84 88 L 84 92 L 83 94 L 80 96 L 80 103 L 79 104 L 79 106 L 79 104 L 80 103 L 83 101 L 82 102 L 84 107 L 82 109 L 80 110 L 78 109 L 76 111 L 74 111 L 68 117 L 68 120 L 66 122 L 66 202 L 69 204 L 68 207 L 72 211 L 76 214 L 81 215 L 95 214 L 164 214 L 174 215 L 180 214 L 182 212 L 187 207 L 188 205 L 188 203 L 191 200 L 190 170 L 190 151 L 191 122 L 189 121 L 190 115 L 188 117 L 186 115 L 184 113 L 184 110 L 180 111 L 179 109 L 173 108 L 173 76 L 171 70 L 170 70 L 168 64 L 167 62 L 166 61 L 165 61 L 164 58 L 160 55 L 162 52 L 160 50 L 158 53 L 156 51 L 155 51 L 152 47 L 154 45 L 151 48 L 148 47 L 144 45 L 138 42 L 138 41 L 138 38 L 140 38 L 131 38 L 131 40 L 129 42 L 125 41 L 126 38 Z M 129 136 L 135 136 L 138 138 L 139 142 L 139 144 L 140 141 L 142 145 L 145 148 L 144 156 L 143 159 L 141 161 L 136 165 L 135 182 L 133 185 L 130 187 L 125 185 L 124 185 L 121 181 L 122 164 L 120 164 L 118 163 L 116 161 L 115 160 L 113 154 L 114 147 L 115 144 L 117 141 L 119 139 L 122 137 Z M 125 61 L 131 61 L 137 62 L 139 64 L 142 64 L 143 66 L 149 72 L 148 76 L 149 102 L 152 77 L 152 79 L 155 82 L 155 104 L 154 108 L 152 110 L 124 110 L 105 110 L 103 107 L 104 95 L 103 94 L 103 84 L 104 82 L 108 82 L 108 103 L 108 79 L 105 81 L 104 77 L 106 74 L 107 71 L 112 66 L 114 66 L 119 62 Z" fill="#071A36" fill-rule="evenodd"/>
</svg>
