<svg xmlns="http://www.w3.org/2000/svg" width="256" height="256" viewBox="0 0 256 256" role="img" aria-label="24_unlock">
  <path d="M 71 219 L 168 219 L 154 220 L 150 219 L 144 220 L 99 220 L 85 220 L 84 219 Z M 141 38 L 143 39 L 145 40 L 138 43 L 135 46 L 133 46 L 131 48 L 129 48 L 127 51 L 118 59 L 116 60 L 116 57 L 113 60 L 116 60 L 116 62 L 111 70 L 111 75 L 109 77 L 109 111 L 107 113 L 103 113 L 98 112 L 72 113 L 69 114 L 66 116 L 65 116 L 64 117 L 64 118 L 60 123 L 59 205 L 62 205 L 62 207 L 59 208 L 61 210 L 64 210 L 65 210 L 67 213 L 70 214 L 73 215 L 82 215 L 100 214 L 143 214 L 156 215 L 167 215 L 170 214 L 173 212 L 178 207 L 180 204 L 180 192 L 179 174 L 180 122 L 182 121 L 179 117 L 177 120 L 176 118 L 174 116 L 172 114 L 169 114 L 168 113 L 147 114 L 138 114 L 134 112 L 128 112 L 129 97 L 129 91 L 128 90 L 128 83 L 130 76 L 132 72 L 133 72 L 134 69 L 136 67 L 137 67 L 140 64 L 142 64 L 144 62 L 150 61 L 155 61 L 156 62 L 162 62 L 164 64 L 167 65 L 169 66 L 173 70 L 173 72 L 172 76 L 177 77 L 176 80 L 178 81 L 179 85 L 179 92 L 177 95 L 177 101 L 182 102 L 183 104 L 185 104 L 186 106 L 188 106 L 190 104 L 193 103 L 193 102 L 195 100 L 196 100 L 197 73 L 195 73 L 194 68 L 194 65 L 196 63 L 193 66 L 190 62 L 190 61 L 188 58 L 187 57 L 187 52 L 185 50 L 179 50 L 177 49 L 175 47 L 173 47 L 172 45 L 170 45 L 168 43 L 163 42 L 164 39 L 166 39 L 163 39 L 162 38 L 157 38 L 157 40 L 155 42 L 152 42 L 150 40 L 151 38 Z M 119 138 L 121 138 L 123 140 L 128 140 L 128 142 L 131 143 L 131 144 L 135 149 L 135 158 L 134 161 L 132 163 L 128 166 L 127 168 L 126 180 L 127 183 L 123 187 L 117 187 L 116 184 L 115 185 L 113 183 L 113 180 L 117 176 L 117 169 L 117 173 L 113 174 L 113 168 L 112 166 L 107 162 L 107 160 L 105 158 L 106 153 L 105 149 L 107 147 L 108 144 L 113 140 L 116 140 Z" fill="#071A36" fill-rule="evenodd"/>
</svg>
