<svg xmlns="http://www.w3.org/2000/svg" width="256" height="256" viewBox="0 0 256 256" role="img" aria-label="25_download">
  <path d="M 214 187 L 216 197 L 213 200 L 216 198 L 216 189 Z M 71 150 L 71 152 L 70 153 L 69 182 L 71 182 Z M 186 150 L 186 180 L 187 150 L 189 149 Z M 62 146 L 60 146 L 51 145 L 49 147 L 48 147 L 47 148 L 47 149 L 45 151 L 46 194 L 45 198 L 44 199 L 45 203 L 49 202 L 51 205 L 55 207 L 58 209 L 163 210 L 165 210 L 196 210 L 198 208 L 201 208 L 210 199 L 210 197 L 212 195 L 212 176 L 215 174 L 216 150 L 214 148 L 211 150 L 211 147 L 209 149 L 208 147 L 205 145 L 197 145 L 195 146 L 192 149 L 192 151 L 190 153 L 190 164 L 191 181 L 191 183 L 185 189 L 131 189 L 70 189 L 67 186 L 66 182 L 66 153 L 65 149 L 64 148 L 65 144 Z M 215 151 L 215 173 L 213 175 Z M 118 47 L 116 49 L 115 49 L 114 50 L 113 53 L 110 56 L 110 107 L 108 109 L 88 109 L 86 110 L 85 113 L 83 115 L 83 119 L 86 123 L 98 136 L 110 148 L 108 150 L 105 148 L 107 149 L 108 152 L 110 154 L 113 156 L 115 154 L 117 155 L 121 161 L 123 161 L 126 163 L 130 163 L 133 161 L 137 162 L 133 166 L 139 161 L 141 159 L 142 157 L 141 154 L 156 139 L 158 139 L 161 139 L 162 137 L 157 137 L 163 130 L 174 119 L 177 112 L 177 120 L 178 118 L 178 116 L 177 115 L 177 112 L 175 110 L 173 113 L 171 110 L 168 109 L 150 108 L 148 109 L 146 106 L 150 63 L 150 81 L 150 61 L 148 62 L 145 56 L 145 52 L 143 52 L 141 49 L 138 47 Z" fill="#071A36" fill-rule="evenodd"/>
</svg>
