<svg xmlns="http://www.w3.org/2000/svg" width="256" height="256" viewBox="0 0 256 256" role="img" aria-label="26_upload">
  <path d="M 61 144 L 57 144 L 56 143 L 53 143 L 49 144 L 46 147 L 43 151 L 44 177 L 44 183 L 43 192 L 45 198 L 48 199 L 54 206 L 57 207 L 62 208 L 65 207 L 80 207 L 83 207 L 193 208 L 197 207 L 200 206 L 210 197 L 210 193 L 212 191 L 212 153 L 210 151 L 210 148 L 205 144 L 195 144 L 192 147 L 190 150 L 189 153 L 189 165 L 190 183 L 188 185 L 186 186 L 72 183 L 186 182 L 184 183 L 65 184 L 64 148 L 65 144 L 64 142 Z M 123 47 L 110 61 L 108 63 L 106 63 L 100 70 L 96 73 L 95 74 L 92 79 L 86 86 L 83 88 L 83 92 L 85 94 L 85 96 L 87 96 L 89 98 L 92 99 L 95 99 L 96 98 L 100 98 L 103 98 L 110 99 L 112 101 L 111 116 L 111 118 L 111 136 L 111 148 L 113 154 L 116 157 L 118 157 L 120 159 L 135 159 L 138 157 L 144 151 L 144 100 L 149 99 L 154 98 L 162 99 L 167 98 L 170 95 L 170 93 L 172 91 L 172 88 L 169 87 L 169 85 L 163 78 L 151 66 L 152 62 L 150 60 L 146 56 L 142 53 L 139 54 L 137 53 L 134 50 L 133 47 L 131 47 Z" fill="#071A36" fill-rule="evenodd"/>
</svg>
