<svg xmlns="http://www.w3.org/2000/svg" width="256" height="256" viewBox="0 0 256 256" role="img" aria-label="27_edit">
  <path d="M 61 147 L 59 149 L 51 158 L 51 162 L 51 159 L 53 156 L 57 153 L 66 144 L 69 141 L 71 138 Z M 217 70 L 217 73 L 218 74 L 218 78 L 216 80 L 217 83 L 217 81 L 219 79 L 219 74 L 217 72 Z M 141 69 L 139 70 L 137 71 L 136 72 L 132 77 L 125 83 L 125 85 L 126 86 L 126 88 L 122 92 L 119 93 L 116 96 L 114 95 L 108 101 L 113 99 L 106 106 L 106 107 L 93 120 L 92 118 L 93 116 L 101 109 L 102 108 L 103 106 L 101 107 L 101 108 L 96 112 L 94 114 L 94 115 L 91 117 L 90 118 L 81 127 L 79 129 L 79 130 L 76 133 L 78 134 L 75 137 L 75 138 L 62 150 L 57 156 L 57 159 L 55 161 L 55 166 L 53 168 L 54 171 L 53 173 L 51 175 L 52 179 L 49 182 L 50 187 L 47 190 L 48 194 L 45 197 L 46 201 L 41 206 L 40 203 L 40 211 L 43 207 L 43 209 L 46 210 L 47 214 L 51 214 L 55 213 L 62 211 L 65 209 L 68 209 L 70 207 L 73 208 L 75 207 L 78 205 L 81 204 L 85 204 L 88 202 L 91 202 L 94 200 L 98 200 L 102 195 L 103 195 L 108 190 L 121 177 L 122 176 L 124 174 L 126 172 L 132 165 L 134 164 L 137 165 L 135 167 L 138 164 L 139 164 L 142 161 L 150 152 L 148 150 L 163 135 L 164 134 L 165 131 L 170 126 L 174 124 L 177 121 L 180 116 L 182 111 L 176 105 L 174 103 L 162 92 L 156 83 L 152 81 L 152 80 L 148 77 L 147 75 L 149 73 L 146 75 L 146 71 L 144 70 L 143 69 Z M 66 170 L 68 173 L 82 185 L 83 186 L 84 187 L 84 189 L 87 190 L 84 193 L 80 193 L 77 195 L 75 193 L 76 191 L 74 191 L 75 194 L 73 196 L 65 197 L 64 195 L 61 193 L 60 186 L 62 184 L 62 179 L 64 177 Z M 149 152 L 142 159 L 141 157 Z M 93 120 L 85 128 L 83 129 L 82 127 L 89 120 Z M 140 70 L 146 71 L 144 73 L 139 74 L 138 72 Z M 173 42 L 172 43 L 170 43 L 162 52 L 151 62 L 151 65 L 150 67 L 149 69 L 151 68 L 157 73 L 155 75 L 159 75 L 164 80 L 164 82 L 169 85 L 171 87 L 170 89 L 171 91 L 174 91 L 175 91 L 176 92 L 179 95 L 180 96 L 182 99 L 181 103 L 184 104 L 183 106 L 186 106 L 187 105 L 192 104 L 213 82 L 214 77 L 213 72 L 211 71 L 211 69 L 210 64 L 213 66 L 212 64 L 209 62 L 207 65 L 205 63 L 203 60 L 199 58 L 198 57 L 189 47 L 185 44 L 182 42 Z" fill="#071A36" fill-rule="evenodd"/>
</svg>
