<svg xmlns="http://www.w3.org/2000/svg" width="256" height="256" viewBox="0 0 256 256" role="img" aria-label="28_trash">
  <path d="M 131 138 L 131 140 L 129 142 L 129 145 L 131 146 L 130 170 L 131 174 Z M 144 96 L 72 97 L 70 99 L 69 99 L 68 100 L 65 104 L 65 115 L 67 117 L 68 122 L 68 126 L 67 137 L 69 148 L 70 149 L 70 152 L 69 170 L 71 174 L 72 179 L 71 193 L 72 200 L 73 201 L 73 204 L 75 205 L 75 207 L 77 209 L 75 211 L 73 209 L 75 211 L 77 210 L 80 211 L 83 214 L 86 214 L 89 215 L 170 215 L 175 213 L 180 210 L 181 209 L 183 206 L 184 206 L 185 203 L 187 201 L 187 199 L 186 198 L 186 196 L 187 190 L 189 188 L 188 176 L 188 167 L 191 154 L 191 148 L 190 139 L 191 134 L 195 133 L 195 144 L 194 163 L 194 145 L 196 143 L 196 113 L 195 115 L 193 117 L 192 106 L 194 104 L 192 104 L 192 102 L 190 100 L 188 99 L 188 98 Z M 157 123 L 162 123 L 165 126 L 165 128 L 164 130 L 166 134 L 166 137 L 165 150 L 163 158 L 163 164 L 164 180 L 163 182 L 161 184 L 157 187 L 155 185 L 154 184 L 153 183 L 153 182 L 152 180 L 153 177 L 152 164 L 153 157 L 154 151 L 156 146 L 158 146 L 157 136 L 155 139 L 154 126 Z M 126 123 L 131 123 L 133 124 L 134 183 L 132 185 L 131 184 L 129 186 L 125 183 L 124 182 L 124 174 L 124 171 L 124 145 L 123 137 L 123 135 L 123 129 L 123 126 Z M 95 123 L 101 123 L 103 125 L 103 141 L 105 143 L 106 149 L 106 158 L 106 174 L 106 179 L 105 181 L 106 183 L 104 185 L 102 185 L 100 186 L 99 184 L 97 185 L 96 180 L 97 179 L 97 176 L 95 173 L 94 168 L 95 154 L 95 143 L 93 135 L 92 126 Z M 155 92 L 155 94 L 187 94 L 190 92 L 196 92 Z M 61 92 L 71 92 L 72 94 L 102 92 Z M 144 44 L 115 45 L 113 47 L 111 47 L 109 49 L 106 50 L 106 52 L 103 55 L 104 57 L 101 59 L 102 63 L 100 65 L 61 65 L 58 63 L 56 66 L 59 66 L 55 71 L 52 73 L 53 80 L 52 81 L 52 83 L 55 82 L 57 85 L 62 88 L 116 89 L 118 88 L 125 89 L 176 89 L 187 89 L 196 88 L 199 87 L 204 83 L 205 71 L 202 69 L 201 67 L 202 63 L 200 63 L 198 65 L 158 64 L 158 59 L 156 57 L 156 55 L 154 54 L 154 52 L 152 50 L 149 49 L 149 46 L 144 46 Z M 114 41 L 116 42 L 137 41 Z" fill="#071A36" fill-rule="evenodd"/>
</svg>
