<svg xmlns="http://www.w3.org/2000/svg" width="256" height="256" viewBox="0 0 256 256" role="img" aria-label="29_bar_chart">
  <path d="M 56 142 L 53 143 L 51 144 L 50 147 L 47 149 L 47 154 L 48 167 L 47 184 L 48 205 L 49 206 L 49 208 L 51 208 L 53 210 L 53 212 L 55 211 L 57 213 L 84 213 L 87 211 L 90 209 L 93 206 L 93 150 L 93 148 L 92 146 L 91 145 L 88 142 L 85 143 L 61 143 L 59 143 L 58 142 Z M 117 96 L 113 97 L 109 101 L 108 103 L 107 122 L 108 204 L 109 209 L 115 211 L 117 213 L 136 213 L 144 212 L 149 211 L 152 208 L 152 205 L 154 204 L 155 202 L 155 177 L 155 170 L 155 137 L 154 119 L 154 114 L 155 104 L 152 103 L 152 101 L 150 98 L 145 96 Z M 116 91 L 118 92 L 145 91 Z M 164 55 L 164 112 L 161 115 L 161 121 L 164 121 L 164 136 L 161 138 L 161 169 L 164 139 L 163 180 L 164 197 L 162 199 L 161 181 L 164 198 Z M 176 47 L 174 49 L 173 49 L 171 51 L 167 56 L 167 204 L 170 206 L 170 208 L 173 211 L 175 211 L 177 213 L 203 213 L 205 211 L 207 212 L 214 204 L 214 56 L 206 48 Z" fill="#071A36" fill-rule="evenodd"/>
</svg>
