<svg xmlns="http://www.w3.org/2000/svg" width="256" height="256" viewBox="0 0 256 256" role="img" aria-label="30_pie_chart">
  <path d="M 123 213 L 122 215 L 130 214 L 133 214 Z M 201 73 L 201 75 L 202 78 L 204 80 L 205 79 L 203 78 L 203 75 Z M 113 47 L 110 49 L 104 49 L 102 51 L 99 51 L 96 53 L 95 48 L 93 49 L 94 53 L 92 55 L 86 54 L 87 56 L 85 58 L 81 59 L 79 62 L 77 63 L 75 63 L 74 64 L 72 64 L 74 65 L 62 76 L 62 78 L 60 81 L 58 83 L 56 84 L 55 80 L 55 83 L 57 86 L 54 88 L 52 92 L 51 95 L 51 97 L 49 99 L 49 102 L 47 104 L 48 107 L 47 109 L 46 111 L 44 113 L 42 111 L 42 108 L 42 115 L 46 114 L 46 118 L 44 122 L 44 134 L 45 137 L 46 139 L 44 141 L 42 140 L 42 147 L 44 144 L 47 147 L 47 150 L 45 152 L 44 148 L 44 152 L 47 151 L 50 154 L 49 157 L 51 159 L 52 161 L 52 165 L 55 166 L 55 168 L 57 170 L 57 172 L 58 174 L 56 176 L 55 174 L 53 172 L 54 175 L 56 177 L 58 175 L 58 177 L 60 176 L 62 178 L 63 181 L 61 183 L 59 182 L 63 185 L 67 184 L 77 194 L 80 195 L 83 198 L 85 198 L 87 200 L 89 200 L 90 202 L 93 202 L 97 204 L 98 206 L 102 206 L 109 209 L 117 209 L 121 211 L 128 211 L 134 209 L 142 210 L 147 207 L 151 207 L 153 205 L 159 204 L 164 200 L 166 200 L 169 197 L 171 197 L 174 194 L 177 193 L 179 191 L 180 191 L 181 190 L 185 184 L 188 183 L 190 182 L 190 184 L 192 183 L 193 181 L 191 183 L 190 179 L 192 176 L 195 174 L 195 172 L 198 170 L 197 168 L 203 160 L 202 157 L 204 156 L 204 152 L 206 150 L 206 145 L 208 142 L 208 137 L 205 134 L 125 135 L 123 133 L 122 132 L 120 130 L 120 50 L 118 47 Z M 138 42 L 136 43 L 135 44 L 135 45 L 133 47 L 134 62 L 134 71 L 134 91 L 134 104 L 133 105 L 133 119 L 134 123 L 136 122 L 206 123 L 211 118 L 211 108 L 209 105 L 210 101 L 207 98 L 207 96 L 206 94 L 207 89 L 205 90 L 202 85 L 201 83 L 200 80 L 199 78 L 197 77 L 197 76 L 195 74 L 199 72 L 198 70 L 195 72 L 193 71 L 190 67 L 188 65 L 183 61 L 183 58 L 181 58 L 178 57 L 177 56 L 178 53 L 175 55 L 173 54 L 172 51 L 174 49 L 171 48 L 169 48 L 172 50 L 170 52 L 167 50 L 165 50 L 163 47 L 155 46 L 153 44 L 147 44 L 143 42 Z" fill="#071A36" fill-rule="evenodd"/>
</svg>
