<svg xmlns="http://www.w3.org/2000/svg" width="256" height="256" viewBox="0 0 256 256" role="img" aria-label="31_line_chart">
  <path d="M 63 153 L 63 159 L 64 157 L 67 156 L 65 155 L 65 153 Z M 189 67 L 185 68 L 183 70 L 178 75 L 176 80 L 175 85 L 175 87 L 176 90 L 178 92 L 174 95 L 173 98 L 172 100 L 168 104 L 166 105 L 165 103 L 162 105 L 162 106 L 158 110 L 166 106 L 165 108 L 163 111 L 158 115 L 157 118 L 152 123 L 146 123 L 142 125 L 139 123 L 137 122 L 134 120 L 131 117 L 131 112 L 129 110 L 129 108 L 127 106 L 125 103 L 123 102 L 120 102 L 117 99 L 111 99 L 109 101 L 107 101 L 104 104 L 103 104 L 101 106 L 98 110 L 98 115 L 99 118 L 99 122 L 93 128 L 90 126 L 92 124 L 86 130 L 89 131 L 84 138 L 75 148 L 73 150 L 71 150 L 71 154 L 69 156 L 71 158 L 73 163 L 71 165 L 73 163 L 76 163 L 78 166 L 83 162 L 84 162 L 87 159 L 92 154 L 95 151 L 98 146 L 103 140 L 112 132 L 115 135 L 123 132 L 127 133 L 129 134 L 130 135 L 130 136 L 132 138 L 135 139 L 135 145 L 133 147 L 132 141 L 133 148 L 136 147 L 138 149 L 141 153 L 144 153 L 149 155 L 151 155 L 152 154 L 155 155 L 157 153 L 158 153 L 165 146 L 165 141 L 166 137 L 165 136 L 165 134 L 167 133 L 167 130 L 176 121 L 176 119 L 183 112 L 184 109 L 190 104 L 198 104 L 199 102 L 201 102 L 204 99 L 205 99 L 207 97 L 207 96 L 210 93 L 210 90 L 212 88 L 212 81 L 210 79 L 210 76 L 208 74 L 202 68 L 199 69 L 198 67 Z M 57 49 L 55 51 L 50 51 L 48 50 L 46 52 L 46 53 L 43 55 L 43 57 L 44 197 L 43 200 L 42 201 L 42 203 L 44 204 L 45 207 L 45 204 L 49 204 L 207 206 L 208 204 L 209 203 L 212 201 L 213 201 L 213 198 L 213 196 L 214 193 L 215 191 L 213 193 L 213 189 L 211 191 L 208 190 L 196 189 L 142 189 L 100 190 L 79 190 L 60 186 L 77 184 L 64 184 L 63 162 L 63 183 L 61 185 L 59 174 L 60 148 L 60 144 L 59 130 L 60 57 L 58 56 L 58 53 Z" fill="#071A36" fill-rule="evenodd"/>
</svg>
