<svg xmlns="http://www.w3.org/2000/svg" width="256" height="256" viewBox="0 0 256 256" role="img" aria-label="32_report_file">
  <path d="M 71 44 L 69 46 L 66 47 L 66 49 L 63 51 L 61 54 L 61 204 L 64 206 L 63 208 L 66 209 L 68 212 L 70 212 L 72 215 L 71 218 L 73 217 L 72 215 L 74 213 L 80 213 L 81 214 L 83 215 L 82 218 L 126 217 L 126 214 L 128 213 L 132 213 L 134 215 L 134 218 L 183 218 L 185 217 L 184 214 L 184 213 L 185 212 L 186 212 L 189 210 L 191 208 L 193 206 L 194 204 L 193 90 L 190 86 L 187 84 L 186 83 L 181 77 L 180 74 L 178 72 L 172 66 L 174 64 L 172 62 L 169 64 L 163 57 L 165 55 L 163 54 L 160 55 L 158 49 L 161 51 L 159 50 L 158 49 L 156 46 L 153 48 L 151 47 L 148 44 Z M 92 155 L 102 155 L 106 157 L 106 183 L 104 185 L 101 187 L 94 187 L 92 186 L 91 185 L 90 183 L 90 157 Z M 153 146 L 161 146 L 163 148 L 164 148 L 164 179 L 165 183 L 163 185 L 160 187 L 153 186 L 151 185 L 149 183 L 149 150 Z M 122 127 L 133 128 L 131 130 L 132 137 L 132 129 L 134 129 L 136 131 L 135 184 L 133 186 L 130 188 L 126 188 L 122 186 L 121 182 L 124 181 L 124 135 L 124 179 L 122 181 L 120 158 L 120 146 L 120 131 L 120 129 Z M 145 65 L 145 68 L 147 67 L 149 69 L 150 72 L 152 73 L 152 77 L 153 81 L 155 79 L 157 79 L 161 84 L 163 85 L 163 89 L 165 91 L 169 91 L 172 94 L 175 95 L 177 98 L 175 100 L 146 99 L 147 97 L 143 95 L 142 94 Z" fill="#071A36" fill-rule="evenodd"/>
</svg>
