<svg xmlns="http://www.w3.org/2000/svg" width="256" height="256" viewBox="0 0 256 256" role="img" aria-label="33_add_circle">
  <path d="M 219 117 L 219 119 L 218 120 L 219 137 Z M 108 43 L 110 44 L 106 48 L 103 47 L 101 49 L 97 49 L 95 51 L 93 51 L 90 50 L 93 51 L 91 53 L 88 54 L 85 57 L 82 58 L 81 56 L 84 53 L 81 55 L 81 56 L 78 57 L 80 57 L 82 58 L 79 61 L 75 61 L 75 59 L 74 61 L 76 62 L 74 64 L 74 65 L 72 67 L 71 67 L 69 69 L 64 74 L 62 76 L 61 78 L 61 80 L 58 83 L 55 88 L 56 89 L 53 91 L 54 93 L 51 95 L 51 98 L 49 100 L 50 103 L 47 106 L 47 108 L 48 110 L 45 113 L 44 113 L 42 115 L 42 120 L 46 117 L 45 140 L 45 142 L 48 145 L 48 147 L 47 149 L 50 153 L 49 156 L 52 158 L 51 162 L 54 163 L 55 166 L 56 168 L 53 171 L 51 169 L 53 172 L 57 172 L 55 175 L 56 173 L 59 173 L 59 175 L 57 178 L 59 180 L 60 177 L 63 179 L 61 181 L 61 183 L 62 185 L 66 189 L 69 190 L 71 188 L 73 190 L 74 192 L 72 194 L 76 194 L 73 196 L 77 194 L 79 195 L 82 197 L 84 200 L 87 201 L 90 203 L 92 203 L 94 205 L 96 205 L 99 208 L 101 207 L 103 209 L 106 209 L 112 210 L 115 211 L 118 213 L 121 213 L 126 212 L 133 213 L 143 213 L 146 211 L 151 212 L 151 215 L 153 214 L 152 211 L 152 210 L 157 209 L 159 207 L 162 207 L 164 205 L 166 205 L 168 203 L 170 203 L 175 200 L 178 198 L 184 193 L 185 193 L 186 192 L 189 188 L 191 187 L 193 187 L 193 189 L 195 188 L 195 187 L 199 184 L 200 183 L 201 180 L 203 178 L 203 177 L 204 176 L 205 176 L 206 174 L 201 179 L 200 182 L 198 184 L 194 187 L 193 185 L 194 183 L 196 180 L 200 176 L 201 173 L 204 170 L 204 169 L 206 167 L 205 165 L 207 164 L 207 161 L 209 159 L 209 155 L 211 153 L 211 149 L 213 146 L 212 140 L 215 134 L 215 122 L 213 118 L 213 110 L 211 109 L 214 104 L 214 107 L 215 103 L 213 103 L 212 101 L 209 101 L 209 97 L 207 96 L 205 92 L 205 89 L 203 88 L 203 86 L 201 84 L 200 82 L 203 80 L 203 78 L 201 77 L 199 80 L 196 77 L 193 73 L 194 69 L 198 72 L 196 71 L 195 70 L 194 69 L 190 64 L 192 67 L 190 69 L 187 66 L 184 65 L 183 64 L 182 63 L 181 61 L 179 59 L 177 59 L 174 55 L 176 53 L 173 51 L 175 53 L 173 55 L 171 55 L 169 53 L 167 53 L 166 51 L 163 51 L 162 49 L 158 49 L 157 47 L 152 47 L 150 45 L 147 45 L 146 46 L 144 46 L 142 44 L 118 44 L 113 45 L 113 42 Z M 126 88 L 130 88 L 132 88 L 134 88 L 137 91 L 137 119 L 139 120 L 139 122 L 168 122 L 171 125 L 172 127 L 172 129 L 170 131 L 170 133 L 168 135 L 165 137 L 139 137 L 137 139 L 137 146 L 135 148 L 133 145 L 134 161 L 137 163 L 137 166 L 135 168 L 134 168 L 131 171 L 126 170 L 125 169 L 123 167 L 122 165 L 120 136 L 94 137 L 90 135 L 89 133 L 91 129 L 93 131 L 93 128 L 91 126 L 88 125 L 91 122 L 118 122 L 122 120 L 122 92 L 123 90 L 124 89 Z" fill="#071A36" fill-rule="evenodd"/>
</svg>
