<svg xmlns="http://www.w3.org/2000/svg" width="256" height="256" viewBox="0 0 256 256" role="img" aria-label="34_minus_circle">
  <path d="M 118 218 L 120 219 L 139 218 Z M 217 113 L 217 116 L 216 117 L 216 119 L 218 120 L 218 137 L 216 139 L 215 141 L 217 142 L 217 147 L 217 139 L 219 137 L 219 120 L 217 118 Z M 51 91 L 51 93 L 47 97 L 47 101 L 48 98 L 50 96 L 51 93 Z M 101 45 L 98 48 L 96 49 L 94 49 L 91 51 L 92 54 L 90 56 L 87 58 L 85 58 L 81 62 L 78 63 L 78 64 L 76 66 L 68 74 L 64 78 L 62 78 L 60 76 L 60 78 L 61 81 L 61 83 L 58 85 L 59 87 L 56 89 L 55 92 L 55 94 L 53 96 L 53 98 L 51 100 L 52 102 L 49 105 L 49 110 L 49 111 L 47 114 L 48 123 L 48 139 L 47 145 L 47 147 L 50 150 L 50 152 L 49 154 L 51 156 L 51 160 L 53 164 L 55 165 L 57 169 L 57 172 L 60 175 L 60 177 L 63 179 L 65 182 L 66 185 L 63 186 L 65 187 L 66 188 L 68 191 L 71 192 L 74 196 L 76 194 L 78 195 L 80 196 L 81 197 L 85 201 L 90 204 L 92 204 L 93 206 L 95 205 L 97 207 L 99 207 L 101 209 L 105 209 L 106 211 L 111 211 L 117 212 L 126 214 L 133 214 L 144 214 L 144 217 L 148 217 L 144 216 L 144 214 L 146 212 L 148 211 L 154 211 L 155 209 L 159 209 L 161 207 L 163 207 L 165 205 L 167 205 L 169 203 L 171 203 L 173 202 L 176 200 L 181 195 L 184 194 L 186 192 L 191 187 L 194 184 L 196 181 L 197 179 L 198 179 L 199 178 L 200 175 L 202 173 L 203 171 L 203 169 L 205 167 L 205 165 L 208 162 L 209 159 L 209 155 L 212 152 L 211 147 L 213 145 L 213 114 L 211 112 L 212 107 L 209 104 L 210 101 L 207 99 L 207 96 L 206 91 L 204 91 L 204 89 L 202 88 L 202 86 L 200 83 L 198 82 L 198 80 L 197 78 L 195 76 L 196 73 L 194 71 L 192 74 L 189 70 L 186 68 L 186 65 L 188 64 L 181 62 L 179 62 L 177 61 L 176 60 L 175 58 L 172 57 L 169 55 L 169 51 L 166 49 L 164 49 L 162 52 L 158 51 L 152 49 L 151 47 L 145 48 L 143 45 L 119 45 L 117 47 L 110 47 L 108 49 L 104 49 L 102 51 L 99 51 L 95 50 L 96 50 L 98 48 L 99 48 L 100 47 Z M 91 124 L 170 125 L 173 128 L 171 133 L 173 135 L 171 137 L 170 137 L 167 140 L 92 140 L 90 138 L 89 138 L 89 132 L 87 134 L 86 130 L 87 128 Z" fill="#071A36" fill-rule="evenodd"/>
</svg>
