<svg xmlns="http://www.w3.org/2000/svg" width="256" height="256" viewBox="0 0 256 256" role="img" aria-label="35_arrow_left">
  <path d="M 101 59 L 101 63 L 100 65 L 97 72 L 96 74 L 92 78 L 91 78 L 86 83 L 86 84 L 79 90 L 75 94 L 75 95 L 70 99 L 69 100 L 52 117 L 51 118 L 46 123 L 45 125 L 44 127 L 44 132 L 42 134 L 41 125 L 43 123 L 40 125 L 40 134 L 42 135 L 43 137 L 46 136 L 47 136 L 79 167 L 81 169 L 95 183 L 96 184 L 102 191 L 107 196 L 110 196 L 112 196 L 115 196 L 121 191 L 122 167 L 122 163 L 122 149 L 126 149 L 127 151 L 129 151 L 131 149 L 198 148 L 202 149 L 204 147 L 205 147 L 206 146 L 208 144 L 209 141 L 211 139 L 210 135 L 210 123 L 211 119 L 209 118 L 209 113 L 207 113 L 208 111 L 206 112 L 203 112 L 202 110 L 124 111 L 121 108 L 122 69 L 120 67 L 121 63 L 119 65 L 119 61 L 116 63 L 106 63 L 104 61 Z" fill="#071A36" fill-rule="evenodd"/>
</svg>
