<svg xmlns="http://www.w3.org/2000/svg" width="256" height="256" viewBox="0 0 256 256" role="img" aria-label="36_arrow_right">
  <path d="M 133 67 L 132 71 L 131 99 L 131 102 L 133 101 L 133 69 L 135 67 L 136 65 Z M 143 63 L 140 65 L 139 68 L 136 70 L 136 108 L 132 109 L 133 107 L 131 108 L 130 108 L 128 110 L 60 110 L 56 111 L 54 113 L 53 113 L 52 114 L 49 117 L 49 119 L 47 121 L 48 127 L 47 137 L 49 139 L 50 142 L 52 143 L 52 145 L 55 146 L 57 148 L 61 149 L 133 150 L 136 150 L 137 165 L 137 189 L 138 189 L 139 192 L 141 194 L 143 195 L 149 195 L 151 194 L 157 189 L 160 186 L 169 176 L 193 154 L 211 135 L 214 131 L 214 127 L 211 124 L 211 123 L 209 121 L 207 120 L 204 117 L 203 116 L 186 99 L 183 95 L 182 92 L 179 92 L 177 90 L 175 87 L 151 64 Z" fill="#071A36" fill-rule="evenodd"/>
</svg>
