<svg xmlns="http://www.w3.org/2000/svg" width="256" height="256" viewBox="0 0 256 256" role="img" aria-label="37_refresh">
  <path d="M 196 135 L 194 137 L 192 137 L 188 141 L 188 145 L 185 147 L 186 150 L 183 153 L 184 155 L 181 157 L 180 161 L 176 166 L 167 175 L 164 176 L 161 179 L 158 181 L 156 181 L 154 183 L 146 184 L 142 187 L 139 186 L 137 188 L 132 189 L 126 189 L 121 188 L 118 186 L 113 187 L 112 185 L 106 184 L 105 182 L 102 182 L 101 180 L 97 179 L 93 174 L 90 174 L 87 171 L 86 169 L 88 166 L 94 160 L 97 161 L 90 167 L 91 169 L 101 156 L 97 161 L 96 159 L 98 156 L 99 152 L 98 149 L 97 147 L 96 146 L 94 145 L 92 145 L 90 143 L 88 143 L 62 144 L 51 146 L 49 144 L 51 146 L 48 147 L 49 150 L 49 188 L 48 192 L 50 192 L 51 194 L 54 196 L 59 195 L 64 191 L 70 188 L 59 200 L 70 185 L 72 185 L 77 190 L 81 193 L 82 193 L 84 196 L 88 197 L 90 199 L 92 199 L 94 202 L 96 201 L 97 203 L 100 203 L 102 205 L 106 205 L 108 207 L 115 207 L 118 209 L 122 208 L 133 208 L 137 209 L 139 209 L 142 207 L 149 207 L 151 205 L 156 205 L 158 203 L 161 203 L 166 199 L 170 198 L 173 195 L 176 194 L 177 193 L 177 192 L 179 190 L 182 189 L 189 182 L 189 181 L 197 172 L 199 170 L 202 171 L 200 173 L 200 174 L 196 178 L 199 175 L 200 175 L 202 171 L 200 168 L 200 166 L 202 164 L 203 161 L 204 161 L 205 156 L 207 154 L 207 150 L 209 148 L 209 143 L 207 142 L 207 140 L 204 139 L 200 135 Z M 117 49 L 115 51 L 108 51 L 106 53 L 102 53 L 97 55 L 95 57 L 93 57 L 91 59 L 89 59 L 84 62 L 81 65 L 79 65 L 76 68 L 76 69 L 72 73 L 70 75 L 66 79 L 63 80 L 62 84 L 59 87 L 59 89 L 56 92 L 56 94 L 54 96 L 55 98 L 52 100 L 52 103 L 50 105 L 51 110 L 48 112 L 49 117 L 50 117 L 51 120 L 53 122 L 54 122 L 55 124 L 62 124 L 70 117 L 69 113 L 72 110 L 73 103 L 75 102 L 75 99 L 79 95 L 80 92 L 86 86 L 90 83 L 94 80 L 96 80 L 99 77 L 103 77 L 104 75 L 108 74 L 111 72 L 117 72 L 121 70 L 135 70 L 139 72 L 144 72 L 152 75 L 156 77 L 158 78 L 160 80 L 160 83 L 162 81 L 164 82 L 166 83 L 167 85 L 165 87 L 163 87 L 161 86 L 163 87 L 165 87 L 168 87 L 171 88 L 170 90 L 172 91 L 164 98 L 161 101 L 161 103 L 157 107 L 155 104 L 157 101 L 160 98 L 161 98 L 163 96 L 155 103 L 155 111 L 157 112 L 157 114 L 157 112 L 156 111 L 159 109 L 159 116 L 164 115 L 203 116 L 208 116 L 206 118 L 210 114 L 212 111 L 212 106 L 212 110 L 210 112 L 208 69 L 209 65 L 205 66 L 205 63 L 203 63 L 204 61 L 197 61 L 198 64 L 187 75 L 183 71 L 180 70 L 176 67 L 174 63 L 172 63 L 171 63 L 170 60 L 167 59 L 165 59 L 163 57 L 161 58 L 160 54 L 155 55 L 154 53 L 149 53 L 148 51 L 143 51 L 139 49 Z M 104 48 L 100 49 L 97 52 L 100 50 L 104 50 L 107 48 Z" fill="#071A36" fill-rule="evenodd"/>
</svg>
