<svg xmlns="http://www.w3.org/2000/svg" width="256" height="256" viewBox="0 0 256 256" role="img" aria-label="38_check_circle">
  <path d="M 128 134 L 128 135 L 121 141 L 120 142 L 119 144 L 121 143 L 121 142 L 123 140 L 128 136 L 129 135 L 133 130 Z M 117 45 L 115 47 L 108 47 L 106 49 L 102 49 L 100 51 L 96 51 L 88 56 L 87 54 L 89 52 L 92 50 L 94 49 L 92 49 L 90 51 L 88 51 L 85 53 L 87 54 L 87 56 L 85 58 L 83 58 L 81 61 L 77 61 L 72 68 L 71 68 L 66 74 L 60 77 L 60 74 L 59 77 L 57 80 L 60 79 L 60 81 L 59 83 L 57 86 L 55 88 L 51 87 L 49 90 L 49 93 L 46 96 L 48 96 L 48 94 L 50 91 L 52 89 L 55 90 L 53 92 L 53 94 L 51 96 L 51 98 L 49 100 L 49 103 L 47 105 L 48 109 L 45 112 L 45 118 L 46 119 L 46 125 L 46 135 L 45 140 L 45 142 L 47 149 L 47 151 L 50 154 L 51 158 L 51 162 L 53 163 L 55 167 L 56 170 L 57 171 L 57 172 L 59 175 L 57 177 L 59 176 L 60 178 L 63 179 L 64 181 L 61 183 L 62 185 L 66 185 L 64 187 L 66 189 L 68 191 L 70 192 L 73 191 L 75 192 L 78 194 L 79 195 L 80 196 L 82 199 L 86 200 L 88 202 L 90 202 L 91 204 L 93 203 L 95 205 L 97 205 L 99 207 L 103 207 L 105 209 L 109 209 L 112 211 L 123 212 L 128 212 L 143 211 L 145 209 L 150 209 L 153 207 L 156 207 L 158 205 L 160 206 L 163 203 L 165 202 L 167 202 L 170 200 L 178 195 L 179 194 L 179 193 L 181 191 L 193 180 L 196 181 L 194 183 L 197 182 L 197 180 L 200 176 L 196 181 L 195 177 L 196 175 L 197 174 L 199 173 L 199 171 L 201 169 L 202 166 L 202 164 L 204 160 L 205 160 L 206 155 L 207 150 L 209 148 L 209 142 L 212 139 L 212 120 L 209 116 L 210 111 L 209 109 L 207 107 L 207 103 L 205 101 L 206 97 L 204 97 L 202 93 L 202 90 L 200 89 L 201 86 L 198 86 L 199 82 L 197 82 L 197 80 L 194 79 L 193 76 L 189 72 L 190 69 L 188 68 L 187 66 L 185 68 L 185 64 L 183 63 L 185 64 L 182 66 L 180 65 L 176 60 L 178 58 L 175 60 L 173 60 L 172 58 L 170 57 L 168 57 L 166 55 L 164 55 L 163 53 L 160 53 L 159 51 L 155 51 L 154 49 L 149 46 L 141 48 L 139 47 L 138 45 Z M 159 99 L 167 99 L 170 102 L 171 104 L 171 108 L 167 113 L 160 116 L 167 109 L 163 112 L 162 112 L 160 114 L 160 115 L 157 118 L 161 118 L 160 120 L 149 127 L 155 121 L 151 124 L 151 125 L 149 127 L 147 127 L 145 131 L 150 130 L 144 137 L 124 156 L 120 161 L 118 161 L 115 164 L 113 164 L 111 162 L 108 161 L 106 159 L 103 156 L 102 155 L 87 140 L 86 137 L 84 135 L 84 131 L 86 129 L 86 128 L 87 127 L 89 126 L 91 125 L 94 125 L 97 127 L 104 135 L 106 137 L 112 142 L 117 144 L 117 146 L 117 143 L 118 141 L 119 139 L 120 138 L 125 134 L 125 133 L 130 128 L 140 118 L 148 111 L 149 110 L 154 103 L 156 101 Z" fill="#071A36" fill-rule="evenodd"/>
</svg>
