<svg xmlns="http://www.w3.org/2000/svg" width="256" height="256" viewBox="0 0 256 256" role="img" aria-label="39_close_circle">
  <path d="M 148 145 L 153 154 L 154 151 Z M 117 44 L 115 46 L 106 45 L 105 48 L 101 48 L 99 50 L 96 50 L 94 52 L 92 51 L 90 54 L 88 54 L 86 56 L 84 56 L 82 57 L 80 59 L 77 60 L 77 61 L 75 63 L 74 63 L 70 66 L 65 70 L 64 71 L 63 73 L 62 76 L 60 78 L 59 78 L 57 80 L 56 78 L 53 80 L 52 82 L 51 84 L 54 81 L 54 80 L 56 79 L 58 82 L 55 84 L 55 86 L 54 88 L 51 90 L 52 92 L 50 94 L 50 97 L 48 99 L 48 101 L 44 105 L 43 103 L 42 106 L 41 107 L 41 112 L 38 116 L 38 144 L 38 139 L 39 138 L 38 118 L 39 115 L 41 115 L 41 109 L 43 107 L 43 106 L 46 106 L 46 108 L 44 110 L 45 116 L 43 120 L 43 136 L 44 145 L 44 147 L 46 149 L 47 151 L 46 154 L 48 155 L 48 159 L 50 161 L 50 164 L 51 165 L 51 167 L 50 168 L 50 171 L 52 167 L 54 169 L 52 172 L 52 174 L 53 171 L 56 173 L 53 177 L 57 177 L 56 181 L 59 184 L 59 186 L 62 182 L 65 186 L 71 192 L 75 196 L 80 198 L 83 201 L 85 201 L 87 203 L 89 203 L 90 205 L 93 205 L 97 207 L 98 209 L 106 210 L 110 212 L 120 213 L 131 212 L 140 213 L 145 210 L 150 210 L 152 208 L 155 209 L 158 206 L 163 205 L 169 202 L 173 198 L 176 197 L 183 191 L 186 188 L 194 179 L 195 176 L 196 175 L 200 174 L 199 170 L 201 169 L 201 166 L 203 164 L 203 161 L 205 159 L 205 156 L 207 154 L 207 150 L 209 147 L 209 145 L 208 143 L 209 139 L 211 136 L 211 120 L 209 117 L 209 110 L 207 108 L 207 103 L 205 102 L 205 97 L 203 96 L 203 93 L 201 92 L 202 89 L 200 90 L 199 86 L 201 83 L 198 79 L 197 76 L 195 79 L 192 78 L 192 77 L 190 75 L 189 72 L 183 66 L 179 64 L 175 60 L 176 56 L 174 56 L 176 57 L 174 59 L 171 58 L 170 57 L 169 55 L 171 53 L 169 55 L 165 55 L 165 53 L 161 52 L 159 52 L 157 49 L 154 50 L 152 48 L 147 48 L 146 46 L 138 46 L 135 44 Z M 95 93 L 99 93 L 102 95 L 113 107 L 115 109 L 119 111 L 125 117 L 127 117 L 149 95 L 151 95 L 153 93 L 156 93 L 158 94 L 160 96 L 158 99 L 160 100 L 158 103 L 159 101 L 162 101 L 163 104 L 144 122 L 141 125 L 136 132 L 138 133 L 138 135 L 139 133 L 142 134 L 143 135 L 144 137 L 142 139 L 143 142 L 146 138 L 149 142 L 160 152 L 162 156 L 162 159 L 162 161 L 161 163 L 159 165 L 157 166 L 151 165 L 152 162 L 148 158 L 146 161 L 145 158 L 146 157 L 146 155 L 143 154 L 143 152 L 141 155 L 139 154 L 128 143 L 128 141 L 125 142 L 122 144 L 119 147 L 118 145 L 122 141 L 110 151 L 110 153 L 108 155 L 103 160 L 106 160 L 103 164 L 101 166 L 97 167 L 96 165 L 93 166 L 90 163 L 89 160 L 89 156 L 90 154 L 104 139 L 107 136 L 113 132 L 114 128 L 112 126 L 114 125 L 114 123 L 110 119 L 107 121 L 107 117 L 106 115 L 104 113 L 102 111 L 101 111 L 100 109 L 101 112 L 99 114 L 97 112 L 97 110 L 93 106 L 95 104 L 95 98 L 92 100 L 92 102 L 94 104 L 92 106 L 89 103 L 89 99 L 91 97 L 91 96 L 92 95 L 93 95 Z" fill="#071A36" fill-rule="evenodd"/>
</svg>
