<svg xmlns="http://www.w3.org/2000/svg" width="256" height="256" viewBox="0 0 256 256" role="img" aria-label="40_more_vertical">
  <path d="M 127 167 L 124 170 L 122 170 L 117 173 L 114 175 L 115 177 L 112 179 L 113 182 L 110 185 L 110 191 L 112 193 L 112 196 L 110 198 L 108 194 L 108 197 L 110 199 L 110 201 L 114 198 L 114 200 L 114 200 L 117 201 L 122 206 L 126 206 L 127 207 L 134 207 L 138 206 L 141 204 L 146 199 L 148 196 L 148 193 L 150 191 L 150 185 L 148 183 L 149 180 L 146 177 L 146 176 L 142 172 L 140 171 L 138 171 L 136 169 L 134 167 Z M 127 109 L 124 112 L 122 111 L 120 114 L 118 114 L 115 117 L 115 119 L 112 121 L 113 124 L 110 126 L 110 132 L 112 134 L 111 139 L 115 140 L 117 144 L 122 148 L 126 148 L 129 151 L 132 151 L 135 148 L 138 148 L 141 146 L 144 143 L 144 142 L 148 138 L 148 135 L 150 133 L 150 126 L 149 125 L 149 121 L 146 117 L 144 115 L 141 114 L 139 111 L 136 112 L 134 109 Z M 137 50 L 124 51 L 122 54 L 119 54 L 113 55 L 115 53 L 110 57 L 110 60 L 111 58 L 114 58 L 114 60 L 112 62 L 113 65 L 110 68 L 110 74 L 108 77 L 109 79 L 108 81 L 110 74 L 113 75 L 112 79 L 110 82 L 110 84 L 114 81 L 114 83 L 117 84 L 117 85 L 118 87 L 118 92 L 120 92 L 117 91 L 119 87 L 121 88 L 124 90 L 129 91 L 131 91 L 137 91 L 140 89 L 141 88 L 146 83 L 147 82 L 148 80 L 149 78 L 149 75 L 151 73 L 151 68 L 150 66 L 148 64 L 148 61 L 144 57 L 144 55 L 142 54 L 139 54 L 137 52 Z" fill="#071A36" fill-rule="evenodd"/>
</svg>
