<svg xmlns="http://www.w3.org/2000/svg" width="256" height="256" viewBox="0 0 256 256" role="img" aria-label="41_shield">
  <path d="M 136 42 L 134 44 L 127 43 L 122 44 L 117 47 L 115 50 L 112 51 L 109 53 L 107 53 L 105 55 L 103 55 L 98 59 L 94 60 L 91 60 L 88 63 L 85 64 L 82 64 L 80 66 L 75 66 L 73 68 L 66 68 L 61 70 L 58 72 L 56 75 L 56 77 L 56 127 L 56 130 L 57 136 L 59 138 L 59 140 L 58 144 L 61 149 L 60 152 L 63 154 L 63 156 L 65 158 L 66 163 L 69 166 L 70 169 L 72 172 L 74 174 L 72 177 L 74 178 L 78 178 L 89 191 L 91 192 L 88 195 L 90 193 L 93 193 L 95 194 L 96 196 L 100 199 L 104 202 L 108 203 L 110 206 L 113 206 L 113 208 L 116 208 L 118 209 L 123 213 L 125 212 L 128 214 L 133 213 L 138 209 L 141 209 L 143 206 L 145 206 L 147 204 L 150 203 L 151 201 L 154 200 L 160 195 L 163 194 L 167 189 L 178 178 L 181 175 L 182 175 L 184 173 L 184 171 L 186 168 L 190 163 L 192 160 L 192 158 L 194 156 L 194 152 L 196 151 L 196 146 L 197 146 L 197 140 L 198 137 L 199 137 L 199 104 L 199 96 L 199 74 L 198 74 L 197 73 L 196 71 L 196 69 L 198 67 L 195 67 L 198 67 L 195 70 L 191 70 L 189 68 L 183 68 L 181 66 L 176 66 L 174 64 L 172 65 L 170 62 L 166 62 L 165 60 L 162 61 L 161 59 L 159 59 L 158 55 L 161 55 L 159 54 L 155 57 L 153 55 L 148 54 L 146 52 L 143 51 L 143 49 L 140 49 L 139 47 L 137 47 L 135 46 L 135 43 L 138 42 Z" fill="#071A36" fill-rule="evenodd"/>
</svg>
