<svg xmlns="http://www.w3.org/2000/svg" width="256" height="256" viewBox="0 0 256 256" role="img" aria-label="42_cloud">
  <path d="M 117 70 L 115 72 L 111 72 L 106 76 L 103 76 L 100 79 L 97 80 L 94 83 L 88 90 L 86 93 L 83 99 L 83 102 L 80 104 L 75 104 L 72 107 L 68 106 L 66 108 L 63 108 L 60 110 L 58 108 L 58 111 L 56 113 L 53 114 L 50 117 L 49 115 L 52 112 L 50 113 L 47 116 L 47 118 L 49 120 L 45 124 L 44 126 L 44 128 L 42 130 L 42 133 L 40 135 L 40 137 L 40 157 L 42 159 L 43 162 L 43 166 L 46 167 L 46 169 L 47 171 L 45 174 L 46 172 L 49 172 L 51 175 L 55 179 L 57 180 L 60 182 L 62 182 L 63 184 L 65 184 L 66 185 L 71 186 L 72 188 L 70 190 L 75 190 L 75 187 L 187 188 L 186 192 L 189 191 L 190 190 L 193 189 L 190 187 L 190 186 L 193 186 L 196 184 L 199 182 L 204 178 L 208 174 L 211 170 L 211 168 L 213 166 L 213 164 L 215 162 L 216 155 L 216 148 L 215 142 L 213 140 L 214 138 L 211 135 L 210 132 L 208 129 L 205 126 L 204 126 L 200 122 L 197 120 L 195 120 L 194 118 L 191 119 L 191 113 L 189 113 L 189 115 L 187 117 L 181 117 L 179 115 L 179 110 L 177 108 L 177 106 L 178 105 L 178 103 L 175 101 L 174 96 L 170 91 L 169 87 L 163 83 L 162 81 L 162 77 L 158 79 L 156 78 L 154 75 L 152 76 L 151 74 L 148 74 L 147 72 L 143 72 L 142 70 L 136 71 L 121 70 Z" fill="#071A36" fill-rule="evenodd"/>
</svg>
