<svg xmlns="http://www.w3.org/2000/svg" width="256" height="256" viewBox="0 0 256 256" role="img" aria-label="43_mail">
  <path d="M 38 129 L 38 171 L 39 131 Z M 38 99 L 38 125 L 39 123 Z M 218 178 L 217 181 L 219 178 L 219 88 Z M 49 83 L 49 85 L 50 87 L 47 90 L 48 101 L 47 180 L 47 182 L 45 185 L 46 183 L 49 183 L 49 185 L 52 186 L 53 187 L 55 190 L 55 193 L 56 189 L 58 189 L 60 191 L 68 191 L 182 191 L 200 191 L 202 189 L 205 189 L 208 188 L 212 184 L 213 181 L 214 176 L 213 90 L 210 90 L 206 94 L 203 95 L 199 99 L 193 101 L 191 105 L 188 106 L 186 108 L 186 109 L 184 111 L 181 112 L 179 114 L 178 114 L 177 115 L 177 116 L 175 118 L 170 120 L 168 123 L 165 124 L 160 129 L 157 130 L 155 132 L 154 132 L 153 133 L 151 136 L 146 139 L 144 142 L 139 144 L 135 143 L 132 143 L 130 141 L 126 147 L 124 147 L 122 146 L 118 143 L 114 140 L 113 138 L 112 137 L 110 136 L 109 136 L 107 135 L 106 131 L 104 130 L 99 129 L 98 126 L 94 125 L 93 124 L 92 123 L 92 120 L 94 119 L 92 120 L 90 120 L 87 118 L 84 117 L 83 116 L 82 114 L 80 112 L 77 111 L 75 110 L 73 106 L 71 106 L 68 102 L 65 102 L 65 101 L 63 99 L 60 98 L 60 96 L 58 95 L 54 94 L 52 92 L 51 90 L 51 87 L 49 85 Z M 129 144 L 133 146 L 130 148 L 128 146 Z M 56 66 L 54 68 L 51 68 L 49 70 L 47 73 L 46 76 L 47 80 L 48 76 L 50 78 L 53 79 L 55 80 L 56 81 L 56 82 L 57 83 L 60 84 L 61 85 L 62 88 L 64 88 L 64 90 L 66 89 L 69 91 L 71 94 L 74 95 L 77 97 L 77 99 L 80 100 L 84 103 L 84 105 L 86 105 L 87 107 L 89 107 L 92 109 L 91 110 L 96 112 L 98 113 L 100 115 L 101 115 L 101 118 L 104 118 L 106 119 L 107 120 L 108 121 L 109 122 L 110 124 L 107 125 L 110 125 L 113 125 L 115 126 L 117 128 L 118 130 L 116 132 L 119 130 L 121 131 L 124 135 L 123 138 L 125 136 L 128 136 L 130 138 L 132 136 L 134 136 L 139 131 L 142 130 L 144 128 L 144 127 L 145 126 L 147 125 L 149 125 L 152 123 L 155 119 L 157 119 L 159 117 L 159 116 L 161 114 L 165 112 L 170 107 L 172 107 L 174 104 L 177 102 L 180 101 L 184 98 L 189 93 L 193 91 L 198 86 L 200 85 L 203 84 L 203 83 L 205 81 L 208 79 L 210 77 L 217 75 L 217 73 L 215 74 L 215 71 L 215 69 L 215 71 L 213 73 L 213 67 L 210 69 L 210 66 L 208 67 L 205 67 Z M 54 62 L 56 63 L 205 62 Z" fill="#071A36" fill-rule="evenodd"/>
</svg>
