<svg xmlns="http://www.w3.org/2000/svg" width="256" height="256" viewBox="0 0 256 256" role="img" aria-label="44_printer">
  <path d="M 191 178 L 189 180 L 200 180 L 197 178 Z M 154 93 L 152 95 L 145 95 L 100 94 L 85 94 L 64 95 L 60 95 L 58 96 L 55 99 L 52 100 L 49 106 L 47 109 L 47 165 L 49 168 L 47 170 L 46 168 L 47 172 L 48 169 L 50 169 L 53 172 L 54 172 L 56 175 L 58 174 L 60 176 L 78 177 L 78 194 L 79 200 L 80 201 L 80 203 L 82 206 L 84 205 L 85 207 L 171 207 L 173 206 L 176 204 L 178 201 L 178 197 L 180 195 L 183 177 L 198 176 L 200 174 L 203 174 L 207 169 L 208 168 L 209 168 L 210 165 L 209 164 L 209 162 L 210 151 L 212 149 L 212 146 L 210 143 L 210 112 L 209 107 L 208 106 L 208 103 L 201 97 L 199 97 L 198 95 L 194 96 L 155 95 Z M 106 150 L 149 151 L 152 151 L 153 150 L 155 150 L 160 151 L 161 151 L 161 165 L 161 175 L 162 176 L 162 186 L 159 189 L 97 188 L 98 185 L 98 151 Z M 183 115 L 185 118 L 188 120 L 188 126 L 184 130 L 182 131 L 180 132 L 176 132 L 174 131 L 172 129 L 172 125 L 174 125 L 174 119 L 174 123 L 172 125 L 171 122 L 170 120 L 174 116 Z M 104 88 L 107 89 L 141 88 Z M 89 44 L 91 45 L 91 47 L 89 49 L 87 50 L 84 52 L 82 55 L 82 81 L 84 83 L 87 84 L 170 84 L 174 82 L 175 79 L 176 70 L 176 61 L 174 55 L 175 52 L 172 51 L 172 49 L 170 49 L 168 47 L 170 44 Z" fill="#071A36" fill-rule="evenodd"/>
</svg>
