<svg xmlns="http://www.w3.org/2000/svg" width="256" height="256" viewBox="0 0 256 256" role="img" aria-label="45_save_download">
  <path d="M 63 218 L 150 218 L 151 217 L 154 217 Z M 186 130 L 188 133 L 186 135 L 184 135 L 178 134 L 176 137 L 175 139 L 175 142 L 176 146 L 178 148 L 179 150 L 178 152 L 181 153 L 181 154 L 182 156 L 180 158 L 158 158 L 145 158 L 117 157 L 79 157 L 74 158 L 73 155 L 74 153 L 76 150 L 78 149 L 79 145 L 81 141 L 81 137 L 79 137 L 78 135 L 76 135 L 75 134 L 72 134 L 69 135 L 66 138 L 65 135 L 66 138 L 65 142 L 62 144 L 61 146 L 61 148 L 59 150 L 55 149 L 55 151 L 59 151 L 57 153 L 56 153 L 56 156 L 51 162 L 51 165 L 52 174 L 51 198 L 52 203 L 53 204 L 53 206 L 56 207 L 58 210 L 60 212 L 63 212 L 65 214 L 156 213 L 171 213 L 190 214 L 192 212 L 195 212 L 202 206 L 204 202 L 204 163 L 202 161 L 202 159 L 206 158 L 205 155 L 202 153 L 200 156 L 199 152 L 200 149 L 200 151 L 198 153 L 196 149 L 196 146 L 197 145 L 197 142 L 195 140 L 197 142 L 197 145 L 195 147 L 194 143 L 192 143 L 192 141 L 190 140 L 190 134 L 188 131 Z M 158 178 L 180 178 L 182 179 L 183 180 L 183 181 L 185 183 L 185 187 L 179 193 L 174 193 L 157 192 L 154 189 L 155 180 L 157 180 L 159 181 L 157 180 Z M 118 42 L 115 43 L 113 44 L 111 48 L 112 59 L 112 61 L 112 89 L 111 91 L 109 93 L 104 94 L 91 94 L 89 95 L 82 98 L 82 101 L 86 101 L 86 106 L 88 108 L 101 121 L 97 122 L 98 124 L 100 126 L 102 127 L 104 126 L 109 129 L 114 134 L 115 136 L 113 139 L 117 137 L 120 140 L 121 143 L 120 145 L 122 147 L 122 144 L 125 144 L 126 146 L 131 146 L 141 134 L 143 132 L 145 132 L 153 127 L 152 129 L 158 123 L 159 121 L 155 125 L 154 123 L 155 121 L 158 118 L 159 118 L 162 115 L 163 112 L 170 105 L 170 97 L 172 95 L 170 97 L 170 93 L 167 95 L 165 95 L 163 93 L 145 92 L 145 47 L 143 47 L 141 44 L 138 42 Z M 114 40 L 107 47 L 106 57 L 108 57 L 108 47 L 109 45 L 112 42 L 113 42 Z" fill="#071A36" fill-rule="evenodd"/>
</svg>
