<svg xmlns="http://www.w3.org/2000/svg" width="256" height="256" viewBox="0 0 256 256" role="img" aria-label="46_link">
  <path d="M 139 102 L 136 105 L 135 105 L 131 108 L 132 110 L 119 122 L 113 128 L 102 139 L 102 148 L 105 149 L 104 151 L 107 153 L 114 153 L 120 151 L 125 146 L 128 143 L 129 140 L 130 139 L 136 133 L 139 132 L 140 129 L 143 128 L 144 125 L 152 116 L 153 115 L 154 115 L 155 108 L 153 108 L 153 106 L 151 106 L 150 104 L 145 102 L 141 103 Z M 154 75 L 151 77 L 149 80 L 148 80 L 145 83 L 145 84 L 143 86 L 145 85 L 146 84 L 150 80 L 151 79 L 151 78 Z M 156 46 L 153 49 L 149 48 L 146 51 L 143 53 L 141 53 L 138 50 L 140 53 L 139 55 L 109 85 L 106 83 L 108 81 L 106 87 L 105 89 L 103 91 L 101 95 L 98 98 L 98 103 L 95 105 L 90 104 L 93 105 L 90 108 L 87 108 L 85 110 L 80 116 L 77 117 L 68 127 L 64 131 L 63 129 L 64 127 L 67 123 L 65 124 L 52 138 L 50 141 L 48 144 L 48 146 L 49 144 L 52 144 L 52 145 L 53 147 L 50 154 L 48 156 L 49 163 L 49 167 L 48 174 L 49 176 L 51 178 L 52 185 L 54 186 L 56 190 L 56 192 L 55 193 L 55 195 L 56 197 L 58 199 L 60 201 L 63 203 L 64 199 L 69 201 L 73 205 L 77 205 L 78 207 L 84 207 L 87 208 L 89 210 L 93 210 L 95 208 L 97 207 L 102 206 L 104 207 L 106 205 L 108 205 L 110 203 L 112 203 L 118 198 L 126 191 L 127 190 L 151 165 L 153 164 L 155 164 L 156 167 L 157 164 L 158 161 L 158 163 L 156 165 L 155 163 L 154 162 L 154 159 L 157 156 L 158 149 L 163 149 L 165 147 L 170 148 L 167 150 L 169 151 L 170 149 L 173 146 L 171 145 L 171 143 L 173 140 L 175 138 L 177 138 L 183 132 L 183 130 L 194 119 L 198 115 L 200 115 L 202 113 L 202 111 L 205 108 L 205 106 L 207 104 L 207 100 L 209 97 L 209 95 L 208 94 L 208 92 L 208 85 L 209 80 L 208 78 L 206 76 L 206 73 L 205 68 L 202 67 L 201 65 L 200 62 L 202 59 L 201 57 L 199 55 L 197 53 L 195 53 L 193 56 L 191 55 L 187 51 L 183 50 L 183 48 L 178 48 L 176 46 Z M 60 135 L 58 137 L 57 140 L 54 143 L 52 144 L 52 141 L 52 139 Z M 160 67 L 165 67 L 170 67 L 173 68 L 176 69 L 178 70 L 180 73 L 178 76 L 180 78 L 182 75 L 182 77 L 185 78 L 186 83 L 189 89 L 186 94 L 186 98 L 184 100 L 183 100 L 182 101 L 178 107 L 170 115 L 154 129 L 143 141 L 137 146 L 136 149 L 133 151 L 132 155 L 130 157 L 129 157 L 124 163 L 111 176 L 103 184 L 100 184 L 97 187 L 82 185 L 80 181 L 82 180 L 79 179 L 78 176 L 76 176 L 80 181 L 78 183 L 76 182 L 75 181 L 75 180 L 70 174 L 69 168 L 69 162 L 70 156 L 72 154 L 72 153 L 75 152 L 77 154 L 80 151 L 81 151 L 90 141 L 81 146 L 90 136 L 102 124 L 112 115 L 115 114 L 116 111 L 118 109 L 118 105 L 119 103 L 123 99 L 152 72 L 153 71 L 153 70 L 157 69 Z" fill="#071A36" fill-rule="evenodd"/>
</svg>
