<svg xmlns="http://www.w3.org/2000/svg" width="256" height="256" viewBox="0 0 256 256" role="img" aria-label="47_flag">
  <path d="M 56 49 L 59 48 L 59 51 L 58 67 L 58 163 L 58 178 L 58 197 L 58 202 L 59 203 L 59 206 L 64 211 L 71 211 L 77 205 L 79 202 L 79 199 L 78 187 L 78 155 L 79 144 L 81 143 L 83 143 L 85 141 L 89 141 L 111 141 L 113 141 L 115 143 L 122 143 L 124 146 L 128 145 L 130 148 L 134 147 L 136 149 L 138 149 L 140 152 L 145 152 L 145 154 L 148 154 L 149 153 L 153 153 L 156 154 L 158 156 L 170 156 L 172 154 L 175 153 L 178 153 L 179 154 L 182 154 L 184 152 L 188 152 L 190 150 L 192 150 L 194 148 L 199 149 L 195 153 L 193 153 L 190 156 L 192 154 L 195 153 L 201 145 L 199 148 L 198 143 L 200 141 L 199 130 L 200 63 L 197 60 L 195 58 L 181 58 L 179 60 L 153 60 L 151 58 L 145 58 L 143 56 L 139 53 L 144 52 L 141 51 L 138 54 L 133 53 L 130 52 L 128 50 L 125 50 L 123 48 L 119 48 L 117 46 L 110 46 L 107 44 L 66 44 L 64 46 L 61 46 L 59 48 L 58 45 L 60 43 L 62 42 Z M 64 40 L 66 41 L 109 40 Z" fill="#071A36" fill-rule="evenodd"/>
</svg>
