<svg xmlns="http://www.w3.org/2000/svg" width="256" height="256" viewBox="0 0 256 256" role="img" aria-label="48_lifebuoy">
  <path d="M 101 162 L 77 186 L 77 190 L 74 189 L 73 186 L 73 192 L 75 193 L 77 191 L 80 194 L 82 194 L 86 198 L 88 198 L 90 200 L 92 200 L 94 202 L 96 202 L 99 205 L 101 205 L 103 204 L 105 207 L 109 206 L 112 209 L 116 209 L 122 208 L 133 208 L 142 209 L 144 208 L 146 206 L 151 207 L 153 204 L 157 204 L 159 202 L 161 202 L 163 200 L 165 199 L 169 198 L 169 197 L 171 195 L 174 195 L 178 188 L 177 185 L 173 181 L 170 179 L 169 178 L 164 171 L 162 170 L 162 168 L 164 166 L 161 169 L 154 162 L 149 162 L 147 164 L 144 164 L 140 167 L 137 167 L 133 169 L 120 168 L 115 167 L 110 165 L 108 163 L 105 162 Z M 157 161 L 161 165 L 163 163 L 161 161 L 159 162 L 158 160 Z M 90 159 L 81 169 L 79 171 L 78 171 L 75 174 L 74 176 L 84 167 L 90 161 Z M 186 78 L 162 105 L 164 106 L 165 109 L 165 113 L 168 117 L 168 119 L 168 137 L 166 143 L 164 145 L 164 147 L 161 149 L 161 152 L 160 153 L 160 155 L 162 154 L 164 155 L 167 157 L 168 158 L 170 161 L 175 164 L 176 165 L 188 176 L 189 178 L 191 177 L 194 174 L 194 172 L 198 168 L 200 165 L 200 163 L 202 161 L 202 159 L 204 157 L 204 153 L 206 151 L 206 146 L 208 143 L 208 135 L 210 130 L 210 124 L 208 120 L 209 112 L 208 109 L 206 108 L 206 102 L 204 101 L 205 99 L 204 97 L 202 96 L 202 92 L 200 91 L 200 88 L 198 87 L 198 85 L 196 83 L 194 80 L 192 78 L 190 78 Z M 64 77 L 60 80 L 59 84 L 56 86 L 55 91 L 53 93 L 53 95 L 51 97 L 51 101 L 48 104 L 49 109 L 46 112 L 46 117 L 46 134 L 46 142 L 49 147 L 48 151 L 51 152 L 51 157 L 53 158 L 53 161 L 55 162 L 56 167 L 58 168 L 59 171 L 57 173 L 59 172 L 65 176 L 66 178 L 85 159 L 88 157 L 89 157 L 90 154 L 92 153 L 93 149 L 90 146 L 89 144 L 89 140 L 87 138 L 87 135 L 86 134 L 86 132 L 87 117 L 89 114 L 89 110 L 91 109 L 91 106 L 93 102 L 91 100 L 82 92 L 81 91 L 74 84 L 73 83 L 69 78 L 66 77 Z M 116 45 L 112 48 L 108 47 L 106 49 L 102 49 L 100 51 L 96 51 L 93 54 L 90 56 L 88 55 L 86 58 L 80 60 L 77 64 L 77 68 L 99 90 L 101 92 L 106 92 L 110 89 L 112 89 L 113 89 L 116 87 L 120 88 L 124 86 L 131 86 L 134 88 L 139 87 L 142 89 L 145 89 L 147 91 L 149 91 L 152 93 L 155 91 L 168 77 L 170 75 L 179 67 L 178 64 L 179 62 L 177 63 L 175 62 L 172 59 L 171 57 L 173 55 L 171 57 L 169 58 L 167 56 L 165 55 L 163 53 L 160 53 L 159 51 L 156 51 L 154 49 L 150 50 L 148 47 L 141 48 L 139 47 L 137 45 Z M 120 41 L 119 42 L 115 42 L 139 42 L 135 42 L 134 41 Z" fill="#071A36" fill-rule="evenodd"/>
</svg>
